# Blender 4.5.6 LTS
# www.blender.org
mtllib pokeball.mtl
o Cube
v -0.446249 -0.439949 0.444727
v -0.444493 0.450781 0.442827
v -0.471505 -0.465047 -0.470946
v -0.469435 0.475879 -0.469047
v 0.446249 -0.439949 0.444727
v 0.444493 0.450781 0.442827
v 0.471504 -0.465047 -0.470946
v 0.469435 0.475879 -0.469047
v -0.502973 -0.496529 -0.393306
v -0.536172 -0.529748 -0.277495
v -0.557390 -0.550989 -0.142777
v -0.561632 -0.555256 -0.000507
v -0.548010 -0.541657 0.139369
v -0.518880 -0.512550 0.267546
v -0.480277 -0.473965 0.374563
v -0.491064 -0.326934 0.489692
v -0.525339 -0.189024 0.523896
v -0.539370 -0.076625 0.537698
v -0.539045 0.088205 0.537349
v -0.525646 0.194453 0.524151
v -0.496020 0.318249 0.494631
v -0.478235 0.484535 0.372808
v -0.516483 0.522800 0.266133
v -0.545315 0.551654 0.138495
v -0.558779 0.565141 -0.000699
v -0.554556 0.560942 -0.142246
v -0.533528 0.539938 -0.276315
v -0.500629 0.507060 -0.391652
v -0.527653 0.338322 -0.526689
v -0.561266 0.207392 -0.560268
v -0.576376 0.094071 -0.575540
v -0.576776 -0.082183 -0.575909
v -0.560970 -0.202083 -0.559916
v -0.522053 -0.347787 -0.521097
v 0.396359 -0.499921 -0.505739
v 0.282103 -0.538366 -0.544095
v 0.146315 -0.565460 -0.571126
v 0.000000 -0.575101 -0.580745
v -0.146315 -0.565460 -0.571126
v -0.282103 -0.538366 -0.544095
v -0.396360 -0.499921 -0.505739
v -0.394488 0.510443 -0.503532
v -0.280666 0.548519 -0.541520
v -0.145531 0.575336 -0.568274
v -0.000000 0.584875 -0.577792
v 0.145531 0.575336 -0.568274
v 0.280666 0.548519 -0.541520
v 0.394487 0.510443 -0.503532
v 0.527653 0.338322 -0.526689
v 0.561266 0.207392 -0.560268
v 0.576376 0.094071 -0.575540
v 0.576776 -0.082183 -0.575909
v 0.560970 -0.202083 -0.559916
v 0.522053 -0.347787 -0.521097
v 0.480277 -0.473965 0.374563
v 0.518880 -0.512550 0.267546
v 0.548010 -0.541657 0.139369
v 0.561632 -0.555256 -0.000507
v 0.557390 -0.550989 -0.142777
v 0.536172 -0.529748 -0.277495
v 0.502973 -0.496529 -0.393306
v 0.500629 0.507060 -0.391652
v 0.533528 0.539938 -0.276315
v 0.554556 0.560942 -0.142246
v 0.558779 0.565141 -0.000699
v 0.545315 0.551654 0.138495
v 0.516483 0.522800 0.266133
v 0.478235 0.484535 0.372808
v 0.496020 0.318249 0.494631
v 0.525646 0.194453 0.524151
v 0.539046 0.088205 0.537349
v 0.539370 -0.076625 0.537698
v 0.525339 -0.189024 0.523896
v 0.491064 -0.326934 0.489692
v -0.373644 -0.471069 0.475779
v -0.264779 -0.505090 0.509726
v -0.136910 -0.528888 0.533472
v -0.000000 -0.537322 0.541887
v 0.136910 -0.528888 0.533472
v 0.264779 -0.505090 0.509726
v 0.373644 -0.471069 0.475779
v 0.372074 0.481641 0.473619
v 0.263590 0.515361 0.507266
v 0.136268 0.538936 0.530790
v 0.000000 0.547289 0.539125
v -0.136268 0.538936 0.530791
v -0.263590 0.515361 0.507266
v -0.372074 0.481641 0.473620
v -0.567617 -0.339441 0.396788
v -0.616451 -0.194401 0.419878
v -0.635054 -0.077274 0.429982
v -0.634662 0.088950 0.429688
v -0.616929 0.199609 0.420013
v -0.574758 0.329799 0.400213
v -0.627266 -0.361932 0.281211
v -0.688565 -0.204717 0.295794
v -0.711568 -0.078179 0.302430
v -0.711105 0.090037 0.302201
v -0.689222 0.209466 0.295845
v -0.636433 0.350635 0.283497
v -0.668364 -0.381519 0.146445
v -0.737995 -0.214584 0.153760
v -0.764259 -0.079178 0.157045
v -0.763735 0.091222 0.156905
v -0.738786 0.218913 0.153755
v -0.678958 0.368918 0.147658
v -0.686767 -0.391422 -0.000103
v -0.760034 -0.220021 -0.000091
v -0.787813 -0.080093 -0.000370
v -0.787253 0.092248 -0.000401
v -0.760880 0.224156 -0.000149
v -0.697988 0.378249 -0.000073
v -0.680487 -0.388503 -0.149345
v -0.752064 -0.218742 -0.156922
v -0.779064 -0.080780 -0.160861
v -0.778506 0.092919 -0.160775
v -0.752853 0.223014 -0.157029
v -0.691384 0.375605 -0.150552
v -0.649452 -0.374858 -0.291495
v -0.714228 -0.212478 -0.307157
v -0.738546 -0.081276 -0.314735
v -0.738026 0.093313 -0.314541
v -0.714881 0.217134 -0.307310
v -0.659141 0.363020 -0.293922
v -0.596319 -0.356783 -0.417301
v -0.649534 -0.205022 -0.442858
v -0.669804 -0.081694 -0.454411
v -0.669341 0.093619 -0.454124
v -0.650003 0.210122 -0.443088
v -0.604086 0.346448 -0.421082
v -0.383571 -0.327880 -0.648289
v -0.439803 -0.203386 -0.665037
v -0.465664 -0.083611 -0.674380
v -0.463477 0.095406 -0.675304
v -0.437554 0.206975 -0.667728
v -0.388229 0.318343 -0.654084
v -0.296318 -0.380514 -0.665798
v -0.720805 -0.074409 -0.165100
v -0.728382 0.085680 -0.016639
v -0.732999 0.006223 -0.016826
v -0.728900 -0.073773 -0.016610
v -0.706622 0.084731 0.128904
v -0.301208 0.371270 -0.673167
v -0.166285 -0.431723 -0.680135
v -0.711119 0.006198 0.129466
v -0.707108 -0.072927 0.129033
v -0.657929 0.083635 0.263335
v -0.662134 0.006176 0.264682
v -0.658357 -0.072002 0.263546
v -0.170002 0.423666 -0.689144
v 0.000000 -0.454295 -0.685946
v -0.587202 0.082629 0.381287
v -0.590906 0.006156 0.383450
v -0.587565 -0.071165 0.381560
v 0.499036 -0.070564 0.481221
v 0.501753 0.006139 0.483814
v -0.000000 0.447136 -0.695738
v 0.166285 -0.431723 -0.680135
v 0.498736 0.081940 0.480898
v 0.533644 -0.075706 -0.549111
v 0.536618 0.006317 -0.552213
v 0.533274 0.087367 -0.548769
v -0.533644 -0.075706 -0.549111
v 0.170002 0.423666 -0.689144
v 0.296318 -0.380514 -0.665798
v -0.536618 0.006317 -0.552213
v -0.533275 0.087367 -0.548769
v -0.498736 0.081940 0.480898
v -0.501753 0.006139 0.483814
v -0.499036 -0.070564 0.481221
v 0.301208 0.371270 -0.673167
v 0.383571 -0.327880 -0.648289
v 0.439803 -0.203386 -0.665036
v 0.465664 -0.083611 -0.674380
v 0.463477 0.095406 -0.675304
v 0.437554 0.206975 -0.667728
v 0.388229 0.318343 -0.654084
v 0.596319 -0.356783 -0.417301
v 0.649534 -0.205022 -0.442858
v 0.669804 -0.081694 -0.454411
v 0.669341 0.093619 -0.454124
v 0.650003 0.210122 -0.443088
v 0.604086 0.346448 -0.421082
v 0.649452 -0.374858 -0.291495
v 0.714228 -0.212478 -0.307157
v 0.738546 -0.081276 -0.314735
v 0.738026 0.093313 -0.314541
v 0.714881 0.217134 -0.307310
v 0.659141 0.363020 -0.293922
v 0.680487 -0.388503 -0.149345
v 0.752064 -0.218742 -0.156922
v 0.779064 -0.080780 -0.160861
v 0.778507 0.092919 -0.160775
v 0.752853 0.223014 -0.157029
v 0.691384 0.375605 -0.150552
v 0.686767 -0.391422 -0.000103
v 0.760034 -0.220021 -0.000091
v 0.787813 -0.080093 -0.000370
v 0.787253 0.092248 -0.000401
v 0.760880 0.224156 -0.000149
v 0.697988 0.378249 -0.000073
v 0.668364 -0.381519 0.146445
v 0.737995 -0.214584 0.153760
v 0.764259 -0.079178 0.157045
v 0.763734 0.091222 0.156905
v 0.738786 0.218913 0.153755
v 0.678958 0.368918 0.147658
v 0.627266 -0.361932 0.281211
v 0.688565 -0.204717 0.295794
v 0.711568 -0.078179 0.302430
v 0.711105 0.090037 0.302201
v 0.689222 0.209466 0.295845
v 0.636433 0.350635 0.283497
v 0.567617 -0.339441 0.396788
v 0.616451 -0.194401 0.419878
v 0.635054 -0.077274 0.429982
v 0.634662 0.088950 0.429688
v 0.616929 0.199609 0.420013
v 0.574758 0.329799 0.400213
v 0.393996 -0.336057 0.560515
v 0.416298 -0.192160 0.607866
v 0.426346 -0.076327 0.625761
v 0.426087 0.087950 0.625358
v 0.416482 0.197388 0.608286
v 0.397310 0.326510 0.567450
v 0.276404 -0.354646 0.613195
v 0.289963 -0.200027 0.671362
v 0.296471 -0.076278 0.693045
v 0.296285 0.088027 0.692589
v 0.290065 0.204827 0.671952
v 0.278526 0.343579 0.621925
v 0.142507 -0.369993 0.646763
v 0.149091 -0.207316 0.711668
v 0.152372 -0.076340 0.735997
v 0.152274 0.088216 0.735500
v 0.149142 0.211735 0.712384
v 0.143584 0.357784 0.656680
v -0.000000 -0.375930 0.658227
v -0.000000 -0.210374 0.725495
v -0.000000 -0.076388 0.750843
v 0.000000 0.088320 0.750330
v 0.000000 0.214637 0.726261
v 0.000000 0.363312 0.668571
v -0.142507 -0.369993 0.646763
v -0.149091 -0.207316 0.711668
v -0.152372 -0.076340 0.735997
v -0.152274 0.088216 0.735500
v -0.149141 0.211735 0.712384
v -0.143584 0.357784 0.656680
v -0.276404 -0.354646 0.613196
v -0.289963 -0.200027 0.671362
v -0.296471 -0.076278 0.693045
v -0.296285 0.088027 0.692589
v -0.290065 0.204827 0.671952
v -0.278526 0.343579 0.621925
v -0.393996 -0.336057 0.560515
v -0.416298 -0.192160 0.607866
v -0.426346 -0.076327 0.625761
v -0.426087 0.087950 0.625358
v -0.416482 0.197388 0.608286
v -0.397310 0.326510 0.567450
v -0.407000 -0.569007 -0.406573
v -0.287124 -0.622918 -0.430978
v -0.148472 -0.657497 -0.450699
v 0.000000 -0.669325 -0.458228
v 0.148472 -0.657497 -0.450699
v 0.287124 -0.622918 -0.430978
v 0.407000 -0.569007 -0.406573
v -0.427684 -0.617420 -0.284451
v -0.299117 -0.683268 -0.298919
v -0.154075 -0.724799 -0.311949
v -0.000000 -0.738912 -0.317345
v 0.154075 -0.724799 -0.311949
v 0.299117 -0.683268 -0.298919
v 0.427684 -0.617420 -0.284451
v -0.443044 -0.645486 -0.145934
v -0.309206 -0.717852 -0.152738
v -0.159221 -0.763998 -0.159330
v -0.000000 -0.779887 -0.162221
v 0.159221 -0.763998 -0.159330
v 0.309206 -0.717852 -0.152738
v 0.443044 -0.645486 -0.145934
v -0.446327 -0.651044 -0.000490
v -0.311594 -0.724884 -0.000478
v -0.160550 -0.772294 -0.000470
v 0.000000 -0.788732 -0.000467
v 0.160550 -0.772294 -0.000470
v 0.311594 -0.724884 -0.000478
v 0.446327 -0.651044 -0.000491
v -0.435421 -0.634320 0.142450
v -0.303639 -0.704866 0.149039
v -0.156232 -0.749590 0.155406
v 0.000000 -0.764917 0.158194
v 0.156232 -0.749590 0.155406
v 0.303639 -0.704866 0.149039
v 0.435421 -0.634320 0.142450
v -0.413550 -0.596900 0.274081
v -0.288742 -0.659447 0.287605
v -0.148505 -0.698469 0.299741
v 0.000000 -0.711622 0.304755
v 0.148505 -0.698469 0.299741
v 0.288742 -0.659447 0.287605
v 0.413550 -0.596900 0.274081
v -0.388036 -0.542331 0.386660
v -0.272977 -0.592054 0.408795
v -0.140837 -0.623508 0.426589
v 0.000000 -0.634177 0.433362
v 0.140837 -0.623508 0.426589
v 0.272977 -0.592054 0.408795
v 0.388036 -0.542331 0.386660
v 0.404830 0.578818 -0.404609
v 0.285448 0.632132 -0.428685
v 0.147557 0.666300 -0.448157
v 0.000000 0.677982 -0.455593
v -0.147557 0.666300 -0.448157
v -0.285448 0.632132 -0.428685
v -0.404830 0.578818 -0.404609
v 0.425231 0.626678 -0.283039
v 0.297219 0.691735 -0.297266
v 0.153038 0.732725 -0.310107
v 0.000000 0.746648 -0.315431
v -0.153038 0.732725 -0.310107
v -0.297219 0.691735 -0.297266
v -0.425231 0.626678 -0.283039
v 0.440411 0.654400 -0.145294
v 0.307165 0.725862 -0.151982
v 0.158103 0.771381 -0.158480
v 0.000000 0.787046 -0.161333
v -0.158103 0.771381 -0.158480
v -0.307165 0.725862 -0.151982
v -0.440411 0.654400 -0.145294
v 0.443675 0.659876 -0.000715
v 0.309536 0.732792 -0.000727
v 0.159421 0.779558 -0.000735
v -0.000000 0.795764 -0.000738
v -0.159421 0.779558 -0.000735
v -0.309536 0.732792 -0.000727
v -0.443675 0.659876 -0.000715
v 0.432921 0.643330 0.141412
v 0.301706 0.713024 0.147847
v 0.155175 0.757162 0.154096
v -0.000000 0.772281 0.156839
v -0.155175 0.757162 0.154096
v -0.301706 0.713024 0.147847
v -0.432921 0.643330 0.141412
v 0.411331 0.606308 0.272405
v 0.287034 0.668150 0.285678
v 0.147576 0.706697 0.297626
v 0.000000 0.719684 0.302570
v -0.147576 0.706697 0.297626
v -0.287034 0.668150 0.285678
v -0.411331 0.606308 0.272405
v 0.386154 0.552278 0.384599
v 0.271536 0.601494 0.406435
v 0.140056 0.632606 0.424009
v 0.000000 0.643155 0.430701
v -0.140056 0.632606 0.424009
v -0.271536 0.601494 0.406435
v -0.386154 0.552277 0.384599
v -0.268260 -0.229048 -0.747510
v -0.310498 -0.143321 -0.753183
v -0.330192 -0.059015 -0.756693
v -0.328452 0.067884 -0.757327
v -0.308583 0.146239 -0.754840
v -0.271310 0.222738 -0.750588
v -0.209519 -0.268783 -0.753131
v -0.212856 0.262639 -0.757027
v -0.118489 -0.307357 -0.758263
v -0.121088 0.302044 -0.763034
v 0.000000 -0.324370 -0.760463
v -0.000000 0.319705 -0.765654
v 0.118489 -0.307357 -0.758263
v 0.121088 0.302044 -0.763034
v 0.209519 -0.268783 -0.753131
v 0.212856 0.262639 -0.757027
v 0.268260 -0.229048 -0.747510
v 0.310498 -0.143321 -0.753183
v 0.330192 -0.059015 -0.756693
v 0.328452 0.067884 -0.757327
v 0.308583 0.146239 -0.754840
v 0.271310 0.222738 -0.750588
v -0.724874 0.006249 -0.165945
v -0.720290 0.086301 -0.165020
v -0.683318 -0.074868 -0.307467
v -0.687231 0.006274 -0.308992
v -0.682836 0.086665 -0.307288
v -0.619716 -0.075255 -0.436698
v -0.623277 0.006297 -0.439005
v -0.619287 0.086948 -0.436432
v -0.430842 -0.077028 -0.640218
v -0.434603 0.006470 -0.642958
v -0.428818 0.088602 -0.641073
v -0.303890 0.063138 -0.716962
v -0.308478 0.004940 -0.717515
v -0.305500 -0.054271 -0.716375
v 0.303890 0.063138 -0.716962
v 0.428819 0.088602 -0.641073
v 0.308478 0.004940 -0.717515
v 0.434603 0.006470 -0.642958
v 0.430842 -0.077028 -0.640218
v 0.305500 -0.054271 -0.716375
v 0.619716 -0.075255 -0.436698
v 0.623277 0.006297 -0.439005
v 0.619287 0.086948 -0.436432
v 0.683318 -0.074868 -0.307467
v 0.687231 0.006274 -0.308992
v 0.682836 0.086665 -0.307288
v 0.720805 -0.074409 -0.165100
v 0.724874 0.006249 -0.165945
v 0.720290 0.086301 -0.165020
v 0.728900 -0.073773 -0.016610
v 0.732999 0.006223 -0.016826
v 0.728382 0.085680 -0.016639
v 0.707108 -0.072927 0.129033
v 0.711119 0.006198 0.129466
v 0.706622 0.084731 0.128904
v 0.658357 -0.072002 0.263546
v 0.662134 0.006176 0.264682
v 0.657929 0.083635 0.263335
v 0.587565 -0.071165 0.381560
v 0.590906 0.006156 0.383450
v 0.587202 0.082629 0.381287
v 0.394464 -0.070289 0.562698
v 0.396455 0.006125 0.565844
v 0.394224 0.081704 0.562325
v 0.274301 -0.070244 0.624951
v 0.275564 0.006115 0.628451
v 0.274128 0.081775 0.624529
v 0.140978 -0.070301 0.664691
v 0.141588 0.006108 0.668366
v 0.140886 0.081950 0.664231
v -0.000000 -0.070345 0.678427
v -0.000000 0.006106 0.682155
v 0.000000 0.082046 0.677952
v -0.140978 -0.070301 0.664691
v -0.141588 0.006108 0.668366
v -0.140887 0.081950 0.664232
v -0.274301 -0.070244 0.624951
v -0.275564 0.006115 0.628451
v -0.274128 0.081775 0.624529
v -0.394464 -0.070289 0.562698
v -0.396455 0.006125 0.565844
v -0.394224 0.081704 0.562325
v -0.248199 -0.211589 -0.707879
v -0.287279 -0.132272 -0.713127
v -0.285507 0.135634 -0.714661
v -0.251022 0.206412 -0.710727
v -0.193851 -0.248353 -0.713080
v -0.166933 -0.114262 -0.744709
v -0.197257 -0.050185 -0.753714
v -0.204313 0.004782 -0.755569
v -0.196508 0.058958 -0.753581
v -0.167685 0.119295 -0.745106
v -0.196939 0.243330 -0.716684
v -0.109628 -0.284043 -0.717828
v -0.117791 -0.163690 -0.764359
v -0.118925 0.168913 -0.765141
v -0.112033 0.279788 -0.722242
v 0.000000 -0.299783 -0.719863
v -0.000000 -0.200283 -0.775925
v -0.000000 0.206235 -0.777107
v -0.000000 0.296128 -0.724667
v 0.109628 -0.284043 -0.717828
v 0.117791 -0.163690 -0.764359
v 0.118925 0.168913 -0.765141
v 0.112033 0.279788 -0.722242
v 0.193851 -0.248353 -0.713080
v 0.166933 -0.114262 -0.744709
v 0.197257 -0.050185 -0.753714
v 0.204313 0.004782 -0.755569
v 0.196508 0.058958 -0.753581
v 0.167685 0.119295 -0.745106
v 0.196939 0.243330 -0.716684
v 0.248199 -0.211590 -0.707879
v 0.287279 -0.132272 -0.713127
v 0.285507 0.135634 -0.714661
v 0.251022 0.206412 -0.710727
v -0.166933 -0.114262 -0.744709
v -0.197257 -0.050185 -0.753714
v -0.204313 0.004782 -0.755569
v -0.196508 0.058958 -0.753581
v -0.167685 0.119295 -0.745106
v -0.117791 -0.163690 -0.764359
v -0.118925 0.168913 -0.765141
v -0.000000 -0.200283 -0.775925
v -0.000000 0.206235 -0.777107
v 0.117791 -0.163690 -0.764359
v 0.118925 0.168913 -0.765141
v 0.166933 -0.114262 -0.744709
v 0.197257 -0.050185 -0.753714
v 0.204313 0.004782 -0.755569
v 0.196508 0.058958 -0.753581
v 0.167685 0.119295 -0.745106
v -0.166933 -0.114274 -0.758465
v -0.197257 -0.050196 -0.767470
v -0.204313 0.004771 -0.769325
v -0.196508 0.058947 -0.767336
v -0.167685 0.119284 -0.758862
v -0.117791 -0.163701 -0.778114
v -0.118925 0.168902 -0.778896
v -0.000000 -0.200295 -0.789680
v -0.000000 0.206224 -0.790863
v 0.117791 -0.163701 -0.778114
v 0.118925 0.168902 -0.778896
v 0.166933 -0.114274 -0.758464
v 0.197257 -0.050196 -0.767470
v 0.204313 0.004771 -0.769325
v 0.196508 0.058947 -0.767336
v 0.167685 0.119284 -0.758862
v -0.182095 -0.082235 -0.762967
v -0.200785 -0.022713 -0.768398
v -0.200410 0.031859 -0.768331
v -0.182096 0.089115 -0.763099
v -0.142362 -0.138987 -0.768289
v -0.145126 -0.048974 -0.778651
v -0.154528 0.004775 -0.780480
v -0.144800 0.057909 -0.778511
v -0.143305 0.144093 -0.768879
v -0.108999 -0.105502 -0.783797
v -0.109697 0.112854 -0.784107
v -0.058896 -0.181998 -0.783897
v -0.059462 0.187563 -0.784880
v -0.000000 -0.149905 -0.795522
v -0.000000 0.157903 -0.796176
v 0.058896 -0.181998 -0.783897
v 0.059462 0.187563 -0.784880
v 0.108999 -0.105502 -0.783797
v 0.109697 0.112854 -0.784107
v 0.142362 -0.138987 -0.768289
v 0.145126 -0.048974 -0.778651
v 0.154528 0.004775 -0.780480
v 0.144800 0.057909 -0.778511
v 0.143305 0.144093 -0.768879
v 0.182095 -0.082235 -0.762967
v 0.200785 -0.022713 -0.768398
v 0.200410 0.031859 -0.768331
v 0.182096 0.089115 -0.763099
v 0.128417 0.089693 -0.774672
v 0.151913 0.032278 -0.779440
v 0.152129 -0.023036 -0.779511
v 0.127920 -0.082361 -0.774492
v 0.065073 0.143950 -0.790202
v 0.064515 -0.136179 -0.789694
v -0.065073 0.143950 -0.790202
v -0.064515 -0.136179 -0.789694
v -0.128417 0.089693 -0.774672
v -0.151913 0.032278 -0.779440
v -0.152129 -0.023036 -0.779511
v -0.127920 -0.082361 -0.774492
v -0.145126 -0.048978 -0.792161
v -0.105024 -0.052148 -0.803074
v -0.154528 0.004771 -0.793990
v -0.105540 0.004779 -0.805138
v -0.144800 0.057906 -0.792021
v -0.105003 0.061300 -0.802918
v -0.108999 -0.105506 -0.797307
v -0.105282 -0.023685 -0.804106
v -0.105272 0.033040 -0.804028
v -0.052512 -0.052068 -0.806868
v 0.000000 -0.051987 -0.810663
v -0.052770 0.004776 -0.808953
v 0.000000 0.004774 -0.812767
v -0.052502 0.061236 -0.806711
v 0.000000 0.061172 -0.810503
v -0.000000 -0.149908 -0.809031
v 0.000000 -0.023607 -0.811715
v 0.000000 0.032973 -0.811635
v 0.052512 -0.052068 -0.806868
v 0.105024 -0.052148 -0.803074
v 0.052770 0.004776 -0.808953
v 0.105540 0.004779 -0.805138
v 0.052502 0.061236 -0.806711
v 0.105003 0.061300 -0.802918
v 0.108999 -0.105506 -0.797307
v 0.105282 -0.023685 -0.804106
v 0.105272 0.033040 -0.804028
v -0.109697 0.112851 -0.797616
v -0.000000 0.157900 -0.809686
v 0.109697 0.112851 -0.797616
v 0.145126 -0.048978 -0.792161
v 0.154528 0.004771 -0.793990
v 0.144800 0.057905 -0.792021
v 0.128417 0.089689 -0.788181
v 0.151913 0.032275 -0.792949
v 0.152129 -0.023040 -0.793021
v 0.127920 -0.082365 -0.788002
v 0.065073 0.143946 -0.803712
v 0.052636 0.033006 -0.807832
v 0.052641 -0.023646 -0.807911
v 0.064515 -0.136183 -0.803204
v -0.065073 0.143946 -0.803712
v -0.052636 0.033006 -0.807832
v -0.052641 -0.023646 -0.807911
v -0.064515 -0.136183 -0.803204
v -0.128417 0.089689 -0.788181
v -0.151913 0.032275 -0.792949
v -0.152129 -0.023040 -0.793021
v -0.127920 -0.082365 -0.788002
vn -0.7991 -0.3519 0.4875
vn -0.8436 -0.1788 0.5063
vn -0.8433 0.1805 0.5063
vn -0.8031 0.3391 0.4899
vn -0.8694 -0.3731 0.3240
vn -0.9235 -0.1864 0.3352
vn -0.9232 0.1879 0.3352
vn -0.8747 0.3589 0.3256
vn -0.9107 -0.3877 0.1424
vn -0.9704 -0.1921 0.1461
vn -0.9702 0.1934 0.1461
vn -0.9168 0.3728 0.1430
vn -0.9190 -0.3913 -0.0482
vn -0.9796 -0.1939 -0.0520
vn -0.9794 0.1953 -0.0521
vn -0.9252 0.3762 -0.0487
vn -0.8929 -0.3831 -0.2364
vn -0.9495 -0.1917 -0.2483
vn -0.9492 0.1932 -0.2484
vn -0.8986 0.3687 -0.2380
vn -0.8341 -0.3673 -0.4117
vn -0.8822 -0.1870 -0.4322
vn -0.8818 0.1887 -0.4323
vn -0.8385 0.3540 -0.4142
vn -0.6434 -0.5007 0.5791
vn -0.7026 -0.3336 0.6285
vn -0.7362 -0.1728 0.6544
vn -0.7359 0.1746 0.6542
vn -0.7056 0.3220 0.6313
vn -0.6483 0.4939 0.5795
vn -0.7105 0.5334 0.4589
vn -0.7630 0.5682 0.3083
vn -0.7952 0.5906 0.1370
vn -0.8020 0.5957 -0.0437
vn -0.7823 0.5825 -0.2207
vn -0.7394 0.5549 -0.3813
vn -0.6827 0.5201 -0.5132
vn -0.7471 0.3410 -0.5705
vn -0.7809 0.1853 -0.5965
vn -0.7813 -0.1835 -0.5966
vn -0.7438 -0.3532 -0.5675
vn -0.6777 -0.5273 -0.5126
vn -0.7330 -0.5632 -0.3815
vn -0.7753 -0.5917 -0.2209
vn -0.7947 -0.6054 -0.0436
vn -0.7879 -0.6002 0.1373
vn -0.7560 -0.5771 0.3088
vn -0.7043 -0.5413 0.4594
vn -0.8958 0.0583 -0.4406
vn -0.8961 -0.0515 -0.4408
vn -0.9654 0.0582 -0.2540
vn -0.9658 -0.0514 -0.2542
vn -0.9969 0.0579 -0.0542
vn -0.9972 -0.0511 -0.0542
vn -0.9874 0.0573 0.1478
vn -0.9877 -0.0505 0.1479
vn -0.9386 0.0565 0.3403
vn -0.9390 -0.0499 0.3404
vn -0.8562 0.0557 0.5137
vn -0.8565 -0.0492 0.5139
vn -0.4489 0.2875 -0.8460
vn 0.4962 -0.1645 -0.8525
vn 0.2634 0.4334 -0.8618
vn -0.3821 0.3655 -0.8488
vn 0.3769 -0.3847 -0.8426
vn -0.2585 -0.4512 -0.8541
vn -0.4927 0.1641 -0.8546
vn 0.4494 -0.3002 -0.8414
vn 0.1120 -0.9921 -0.0573
vn 0.3821 0.3655 -0.8488
vn -0.2634 0.4334 -0.8618
vn -0.0936 -0.4994 -0.8613
vn 0.1137 -0.9935 -0.0104
vn 0.4489 0.2875 -0.8460
vn -0.0959 0.4836 -0.8701
vn -0.4962 -0.1645 -0.8525
vn 0.0936 -0.4994 -0.8613
vn 0.4927 0.1641 -0.8546
vn -0.4494 -0.3002 -0.8414
vn 0.0994 -0.9947 0.0279
vn 0.0959 0.4836 -0.8701
vn 0.2585 -0.4512 -0.8541
vn -0.3769 -0.3847 -0.8426
vn 0.1029 -0.9913 -0.0825
vn -0.5408 -0.5141 -0.6658
vn -0.6077 -0.3596 -0.7080
vn -0.6483 -0.1906 -0.7371
vn -0.0992 0.9918 -0.0800
vn -0.0994 -0.9947 0.0279
vn -0.6469 0.1930 -0.7378
vn -0.6093 0.3475 -0.7128
vn -0.5407 0.5085 -0.6702
vn -0.4499 0.5531 -0.7012
vn -0.2986 0.6065 -0.7368
vn -0.1057 0.6382 -0.7626
vn 0.1057 0.6382 -0.7626
vn 0.2986 0.6065 -0.7368
vn 0.4499 0.5531 -0.7012
vn 0.5407 0.5085 -0.6702
vn 0.6093 0.3475 -0.7128
vn 0.6469 0.1930 -0.7378
vn 0.4362 0.7210 -0.5384
vn -0.1137 -0.9935 -0.0104
vn 0.6483 -0.1906 -0.7371
vn 0.6077 -0.3596 -0.7080
vn 0.5408 -0.5141 -0.6658
vn 0.4467 -0.5605 -0.6973
vn 0.2948 -0.6139 -0.7322
vn 0.1038 -0.6452 -0.7570
vn -0.1038 -0.6452 -0.7570
vn -0.2948 -0.6139 -0.7322
vn -0.4467 -0.5605 -0.6973
vn 0.8341 -0.3673 -0.4117
vn 0.8822 -0.1870 -0.4322
vn 0.1125 0.8499 -0.5147
vn -0.1120 -0.9921 -0.0573
vn 0.8818 0.1887 -0.4323
vn 0.8385 0.3540 -0.4142
vn 0.8929 -0.3831 -0.2364
vn 0.9495 -0.1917 -0.2483
vn -0.3068 0.7939 -0.5250
vn 0.1078 0.9926 -0.0560
vn 0.9492 0.1932 -0.2484
vn 0.8986 0.3687 -0.2380
vn 0.9190 -0.3913 -0.0482
vn 0.9796 -0.1939 -0.0520
vn 0.1094 0.9939 -0.0102
vn 0.0953 0.9951 0.0277
vn 0.9794 0.1953 -0.0521
vn 0.9252 0.3762 -0.0487
vn 0.9107 -0.3877 0.1424
vn 0.9704 -0.1921 0.1461
vn 0.7712 -0.3461 -0.5343
vn 0.0992 0.9918 -0.0800
vn 0.9702 0.1934 0.1461
vn 0.9168 0.3728 0.1430
vn 0.8694 -0.3731 0.3240
vn 0.9235 -0.1864 0.3352
vn 0.1970 -0.9804 0.0046
vn -0.1029 -0.9913 -0.0825
vn 0.9232 0.1879 0.3352
vn 0.8747 0.3589 0.3256
vn 0.7991 -0.3519 0.4875
vn 0.8436 -0.1788 0.5063
vn -0.7712 -0.3461 -0.5343
vn -0.0953 0.9951 0.0277
vn 0.8433 0.1805 0.5063
vn 0.8031 0.3391 0.4899
vn 0.6777 -0.5273 -0.5126
vn 0.7438 -0.3532 -0.5675
vn 0.7813 -0.1835 -0.5966
vn 0.8279 -0.1932 -0.5265
vn -0.1094 0.9939 -0.0102
vn 0.7809 0.1853 -0.5965
vn 0.7471 0.3410 -0.5705
vn 0.6827 0.5201 -0.5132
vn 0.7394 0.5549 -0.3813
vn 0.7823 0.5825 -0.2207
vn 0.8020 0.5957 -0.0437
vn 0.7952 0.5906 0.1370
vn 0.7630 0.5682 0.3083
vn 0.7105 0.5334 0.4589
vn 0.6483 0.4939 0.5795
vn 0.7056 0.3220 0.6313
vn 0.7359 0.1746 0.6542
vn -0.1078 0.9926 -0.0560
vn -0.8279 -0.1932 -0.5265
vn 0.7362 -0.1728 0.6544
vn 0.7026 -0.3336 0.6285
vn 0.6434 -0.5007 0.5791
vn 0.7043 -0.5413 0.4594
vn 0.7560 -0.5771 0.3088
vn 0.7879 -0.6002 0.1373
vn 0.7947 -0.6054 -0.0436
vn 0.7753 -0.5917 -0.2209
vn 0.7330 -0.5632 -0.3815
vn 0.4338 -0.3462 0.8319
vn 0.4518 -0.1757 0.8746
vn -0.0552 0.9962 0.0675
vn 0.0237 -0.9962 0.0838
vn 0.4519 0.1773 0.8743
vn 0.4361 0.3335 0.8358
vn 0.2697 -0.3631 0.8919
vn 0.2801 -0.1811 0.9427
vn -0.0077 -0.9962 0.0864
vn -0.0401 -0.9961 0.0785
vn 0.2802 0.1825 0.9424
vn 0.2712 0.3493 0.8969
vn 0.0916 -0.3735 0.9231
vn 0.0949 -0.1846 0.9782
vn 0.8309 0.1721 -0.5291
vn -0.8309 0.1721 -0.5291
vn 0.0950 0.1859 0.9780
vn 0.0921 0.3591 0.9288
vn -0.0916 -0.3735 0.9231
vn -0.0949 -0.1846 0.9782
vn 0.7686 0.3429 -0.5401
vn -0.1814 0.9834 -0.0046
vn -0.0950 0.1859 0.9780
vn -0.0921 0.3591 0.9288
vn -0.2697 -0.3631 0.8919
vn -0.2801 -0.1811 0.9427
vn -0.0568 -0.9959 0.0700
vn -0.0856 -0.9902 -0.1101
vn -0.2802 0.1825 0.9424
vn -0.2712 0.3493 0.8969
vn -0.4338 -0.3462 0.8319
vn -0.4518 -0.1757 0.8746
vn 0.0236 0.9965 0.0806
vn -0.7686 0.3429 -0.5401
vn -0.4519 0.1773 0.8743
vn -0.4361 0.3335 0.8358
vn 0.5301 -0.4981 0.6862
vn 0.5790 -0.3318 0.7447
vn 0.6047 -0.1718 0.7777
vn -0.0078 0.9965 0.0832
vn -0.0395 0.9964 0.0755
vn 0.6046 0.1736 0.7774
vn 0.5818 0.3202 0.7477
vn 0.5305 0.4913 0.6908
vn 0.4071 0.5262 0.7466
vn 0.2558 0.5554 0.7912
vn 0.0873 0.5721 0.8155
vn -0.0873 0.5721 0.8155
vn -0.2558 0.5554 0.7912
vn -0.4071 0.5262 0.7466
vn -0.5305 0.4913 0.6908
vn -0.5818 0.3202 0.7477
vn -0.6046 0.1736 0.7774
vn 0.3117 -0.8033 -0.5075
vn -0.1149 -0.8611 -0.4953
vn -0.6047 -0.1718 0.7777
vn -0.5790 -0.3318 0.7447
vn -0.5301 -0.4981 0.6862
vn -0.4074 -0.5341 0.7408
vn -0.2562 -0.5642 0.7849
vn -0.0875 -0.5814 0.8089
vn 0.0875 -0.5814 0.8089
vn 0.2562 -0.5642 0.7849
vn 0.4074 -0.5341 0.7408
vn -0.4480 -0.7997 -0.3998
vn -0.2800 -0.8612 -0.4241
vn -0.0954 -0.8933 -0.4392
vn 0.0954 -0.8933 -0.4392
vn 0.2800 -0.8612 -0.4241
vn 0.4480 -0.7997 -0.3998
vn -0.4681 -0.8533 -0.2296
vn -0.2911 -0.9252 -0.2433
vn -0.0989 -0.9626 -0.2524
vn 0.0989 -0.9626 -0.2524
vn 0.2911 -0.9252 -0.2433
vn 0.4681 -0.8533 -0.2296
vn -0.4785 -0.8769 -0.0462
vn -0.2974 -0.9534 -0.0505
vn -0.1009 -0.9935 -0.0535
vn 0.1009 -0.9935 -0.0535
vn 0.2974 -0.9534 -0.0505
vn 0.4785 -0.8769 -0.0462
vn -0.4743 -0.8692 0.1398
vn -0.2947 -0.9447 0.1440
vn -0.1000 -0.9841 0.1469
vn 0.1000 -0.9841 0.1469
vn 0.2947 -0.9447 0.1440
vn 0.4743 -0.8692 0.1398
vn -0.4562 -0.8315 0.3170
vn -0.2834 -0.9005 0.3299
vn -0.0961 -0.9360 0.3385
vn 0.0961 -0.9360 0.3385
vn 0.2834 -0.9005 0.3299
vn 0.4562 -0.8315 0.3170
vn -0.4299 -0.7671 0.4761
vn -0.2681 -0.8244 0.4985
vn -0.0912 -0.8540 0.5122
vn 0.0912 -0.8540 0.5122
vn 0.2681 -0.8244 0.4985
vn 0.4299 -0.7671 0.4761
vn -0.5557 -0.6588 -0.5071
vn -0.4299 -0.7161 -0.5500
vn -0.2714 -0.7637 -0.5858
vn -0.0928 -0.7898 -0.6063
vn 0.0928 -0.7898 -0.6063
vn 0.2714 -0.7637 -0.5858
vn 0.4299 -0.7161 -0.5500
vn 0.5557 -0.6588 -0.5071
vn 0.5937 -0.7103 -0.3781
vn 0.6235 -0.7505 -0.2189
vn 0.6378 -0.7690 -0.0429
vn 0.6324 -0.7625 0.1366
vn 0.6082 -0.7321 0.3068
vn 0.5707 -0.6827 0.4563
vn 0.5280 -0.6258 0.5741
vn 0.4069 -0.6777 0.6126
vn 0.2561 -0.7205 0.6445
vn 0.0874 -0.7438 0.6627
vn -0.0874 -0.7438 0.6627
vn -0.2561 -0.7205 0.6445
vn -0.4069 -0.6777 0.6126
vn -0.5280 -0.6258 0.5741
vn -0.5707 -0.6827 0.4563
vn -0.6082 -0.7321 0.3068
vn -0.6324 -0.7625 0.1366
vn -0.6378 -0.7690 -0.0429
vn -0.6235 -0.7505 -0.2189
vn -0.5937 -0.7103 -0.3781
vn 0.4454 0.8023 -0.3974
vn 0.2783 0.8631 -0.4215
vn 0.0947 0.8948 -0.4363
vn -0.0947 0.8948 -0.4363
vn -0.2783 0.8631 -0.4215
vn -0.4454 0.8023 -0.3974
vn 0.4652 0.8553 -0.2282
vn 0.2892 0.9263 -0.2417
vn 0.0982 0.9631 -0.2507
vn -0.0982 0.9631 -0.2507
vn -0.2892 0.9263 -0.2417
vn -0.4652 0.8553 -0.2282
vn 0.4755 0.8785 -0.0459
vn 0.2954 0.9541 -0.0502
vn 0.1002 0.9935 -0.0531
vn -0.1002 0.9935 -0.0531
vn -0.2954 0.9541 -0.0502
vn -0.4755 0.8785 -0.0459
vn 0.4714 0.8709 0.1389
vn 0.2927 0.9454 0.1430
vn 0.0993 0.9843 0.1459
vn -0.0993 0.9843 0.1459
vn -0.2927 0.9454 0.1430
vn -0.4714 0.8709 0.1389
vn 0.4535 0.8337 0.3151
vn 0.2816 0.9018 0.3279
vn 0.0955 0.9369 0.3363
vn -0.0955 0.9369 0.3363
vn -0.2816 0.9018 0.3279
vn -0.4535 0.8337 0.3151
vn 0.4275 0.7700 0.4736
vn 0.2665 0.8266 0.4956
vn 0.0906 0.8559 0.5092
vn -0.0906 0.8559 0.5092
vn -0.2665 0.8266 0.4956
vn -0.4275 0.7700 0.4736
vn 0.5530 0.6630 -0.5046
vn 0.4276 0.7196 -0.5471
vn 0.2699 0.7667 -0.5825
vn 0.0923 0.7925 -0.6028
vn -0.0923 0.7925 -0.6028
vn -0.2699 0.7667 -0.5825
vn -0.4276 0.7196 -0.5471
vn -0.5530 0.6630 -0.5046
vn -0.5907 0.7139 -0.3762
vn -0.6201 0.7537 -0.2177
vn -0.6343 0.7719 -0.0427
vn -0.6290 0.7655 0.1359
vn -0.6050 0.7353 0.3053
vn -0.5680 0.6864 0.4541
vn -0.5256 0.6301 0.5716
vn -0.4049 0.6814 0.6097
vn -0.2548 0.7238 0.6412
vn -0.0869 0.7468 0.6593
vn 0.0869 0.7468 0.6593
vn 0.2548 0.7238 0.6412
vn 0.4049 0.6814 0.6097
vn 0.5256 0.6301 0.5716
vn 0.5680 0.6864 0.4541
vn 0.6050 0.7353 0.3053
vn 0.6290 0.7655 0.1359
vn 0.6343 0.7719 -0.0427
vn 0.6201 0.7537 -0.2177
vn 0.5907 0.7139 -0.3762
vn -0.4405 -0.7297 -0.5230
vn -0.0822 0.9908 -0.1071
vn 0.0704 0.9959 0.0566
vn 0.1153 -0.9928 -0.0329
vn 0.1082 -0.9941 0.0097
vn 0.0876 -0.9952 0.0441
vn -0.0876 -0.9952 0.0441
vn -0.1082 -0.9941 0.0097
vn 0.3068 0.7939 -0.5250
vn 0.0733 -0.9956 0.0582
vn -0.1153 -0.9928 -0.0329
vn -0.1125 0.8499 -0.5147
vn -0.0733 -0.9956 0.0582
vn -0.4362 0.7210 -0.5384
vn 0.1110 0.9933 -0.0324
vn 0.1040 0.9945 0.0098
vn 0.0839 0.9955 0.0433
vn -0.1970 -0.9804 0.0046
vn -0.0839 0.9955 0.0433
vn -0.1040 0.9945 0.0098
vn -0.1110 0.9933 -0.0324
vn -0.0704 0.9959 0.0566
vn 0.0401 -0.9961 0.0785
vn 0.0077 -0.9962 0.0864
vn -0.0237 -0.9962 0.0838
vn 0.0568 -0.9959 0.0700
vn 0.1814 0.9834 -0.0046
vn 0.0822 0.9908 -0.1071
vn 0.0395 0.9964 0.0755
vn 0.0078 0.9965 0.0832
vn -0.0236 0.9965 0.0806
vn 0.0552 0.9962 0.0675
vn 0.4405 -0.7297 -0.5230
vn 0.1149 -0.8611 -0.4953
vn 0.0856 -0.9902 -0.1101
vn -0.3117 -0.8033 -0.5075
vn -0.7467 -0.0487 0.6634
vn -0.7464 0.0551 0.6632
vn -0.7927 0.0585 -0.6068
vn -0.7930 -0.0517 -0.6070
vn -0.5092 0.0526 -0.8591
vn -0.5106 -0.0475 -0.8585
vn 0.5092 0.0526 -0.8591
vn 0.5106 -0.0475 -0.8585
vn -0.6632 -0.0533 -0.7466
vn -0.6624 0.0614 -0.7467
vn 0.6624 0.0614 -0.7467
vn 0.6632 -0.0533 -0.7466
vn 0.8961 -0.0515 -0.4408
vn 0.8958 0.0583 -0.4406
vn 0.9658 -0.0514 -0.2542
vn 0.9654 0.0582 -0.2540
vn 0.9972 -0.0511 -0.0542
vn 0.9969 0.0579 -0.0542
vn 0.9877 -0.0505 0.1479
vn 0.9874 0.0573 0.1478
vn 0.9390 -0.0499 0.3404
vn 0.9386 0.0565 0.3403
vn 0.8565 -0.0492 0.5139
vn 0.8562 0.0557 0.5137
vn 0.7930 -0.0517 -0.6070
vn 0.7927 0.0585 -0.6068
vn 0.7464 0.0551 0.6632
vn 0.7467 -0.0487 0.6634
vn 0.4594 -0.0484 0.8869
vn 0.4592 0.0548 0.8866
vn 0.2853 -0.0485 0.9572
vn 0.2851 0.0549 0.9569
vn 0.0968 -0.0485 0.9941
vn 0.0968 0.0550 0.9938
vn -0.0968 -0.0485 0.9941
vn -0.0968 0.0550 0.9938
vn -0.2853 -0.0485 0.9572
vn -0.2851 0.0549 0.9569
vn -0.4594 -0.0484 0.8869
vn -0.4592 0.0548 0.8866
vn 0.6138 -0.0484 0.7880
vn 0.6136 0.0548 0.7877
vn -0.6136 0.0548 0.7877
vn -0.6138 -0.0484 0.7880
vn -0.2210 -0.1783 -0.9588
vn -0.2689 -0.1736 -0.9474
vn -0.3331 -0.0540 -0.9413
vn -0.3312 0.0578 -0.9418
vn -0.2668 0.1717 -0.9483
vn -0.2232 0.1655 -0.9606
vn -0.3291 -0.2550 -0.9092
vn -0.2995 0.9541 -0.0008
vn 0.7090 -0.7052 0.0006
vn 0.9039 -0.4277 0.0003
vn -0.9039 -0.4277 0.0003
vn -0.3321 0.2449 -0.9109
vn -0.1507 -0.4226 -0.8937
vn 0.2995 0.9541 -0.0008
vn -0.7090 -0.7052 0.0006
vn 0.7134 0.7008 -0.0006
vn -0.2966 -0.9550 0.0008
vn -0.1550 0.4281 -0.8903
vn 0.1507 -0.4226 -0.8937
vn 0.9023 0.4311 -0.0003
vn -0.9023 0.4311 -0.0003
vn -0.7134 0.7008 -0.0006
vn 0.2966 -0.9550 0.0008
vn 0.1550 0.4281 -0.8903
vn 0.3291 -0.2550 -0.9092
vn 0.9898 0.1426 -0.0001
vn -0.9898 0.1426 -0.0001
vn 0.9919 -0.1273 0.0001
vn -0.9919 -0.1273 0.0001
vn 0.3321 0.2449 -0.9109
vn 0.2210 -0.1783 -0.9588
vn 0.2689 -0.1736 -0.9474
vn 0.3331 -0.0540 -0.9413
vn 0.3312 0.0578 -0.9418
vn 0.2668 0.1717 -0.9483
vn 0.2232 0.1655 -0.9606
vn -0.0000 1.0000 -0.0000
vn -0.4121 0.0008 -0.9111
vn -0.1264 0.1216 -0.9845
vn 0.1608 0.0980 -0.9821
vn 0.2013 -0.2258 -0.9532
vn 0.2205 -0.0570 -0.9737
vn 0.2159 0.0806 -0.9731
vn 0.2982 0.1108 -0.9480
vn 0.2046 0.2259 -0.9524
vn 0.4121 0.0008 -0.9111
vn 0.2208 0.0626 -0.9733
vn 0.2147 -0.0749 -0.9738
vn 0.9636 0.2674 -0.0001
vn -0.2081 -0.9781 0.0003
vn 0.2941 -0.1169 -0.9486
vn 0.4125 -0.0108 -0.9109
vn 0.2081 -0.9781 0.0003
vn -0.9654 -0.2606 0.0001
vn 0.9955 0.0947 -0.0000
vn 0.1264 0.1216 -0.9845
vn 0.5677 -0.8232 0.0002
vn 0.7741 -0.6330 0.0002
vn -0.8889 0.4582 -0.0001
vn -0.8889 -0.4581 0.0001
vn 0.9963 -0.0859 -0.0000
vn -0.7778 0.6286 -0.0002
vn 0.1599 -0.1035 -0.9817
vn 0.1254 -0.1264 -0.9840
vn -0.5717 0.8204 -0.0002
vn -0.9636 0.2674 -0.0001
vn 0.9654 -0.2606 0.0001
vn -0.1608 0.0980 -0.9821
vn -0.2097 0.9778 -0.0003
vn 0.2097 0.9778 -0.0003
vn -0.9955 0.0947 -0.0000
vn 0.8889 0.4582 -0.0001
vn 0.5717 0.8204 -0.0002
vn 0.7778 0.6286 -0.0002
vn -0.1254 -0.1264 -0.9840
vn -0.1599 -0.1035 -0.9817
vn -0.7741 -0.6330 0.0002
vn -0.5677 -0.8232 0.0002
vn -0.2046 0.2259 -0.9524
vn -0.2982 0.1108 -0.9480
vn 0.8889 -0.4581 0.0001
vn -0.2208 0.0626 -0.9733
vn -0.2159 0.0806 -0.9731
vn -0.9963 -0.0859 -0.0000
vn -0.2147 -0.0749 -0.9738
vn -0.2205 -0.0570 -0.9737
vn -0.4125 -0.0108 -0.9109
vn -0.2941 -0.1169 -0.9486
vn -0.2013 -0.2258 -0.9532
vn -0.3838 -0.1626 -0.9090
vn -0.2260 -0.0453 -0.9731
vn -0.2490 0.0706 -0.9659
vn -0.0846 -0.0234 -0.9961
vn -0.0720 -0.0369 -0.9967
vn -0.0720 0.0400 -0.9966
vn 0.1163 -0.0545 -0.9917
vn 0.0720 -0.0368 -0.9967
vn 0.0720 0.0399 -0.9966
vn 0.3859 0.1539 -0.9096
vn 0.2265 0.0492 -0.9728
vn 0.2490 0.0706 -0.9659
vn 0.2475 -0.0666 -0.9666
vn 0.2260 -0.0453 -0.9731
vn 0.3838 -0.1626 -0.9090
vn 0.1158 0.0464 -0.9922
vn 0.0846 0.0153 -0.9963
vn 0.0720 0.0400 -0.9966
vn 0.0720 -0.0369 -0.9967
vn 0.0846 -0.0234 -0.9961
vn -0.0846 0.0153 -0.9963
vn -0.1158 0.0464 -0.9922
vn -0.0720 0.0399 -0.9966
vn -0.0720 -0.0368 -0.9967
vn -0.1163 -0.0545 -0.9917
vn -0.3859 0.1539 -0.9096
vn -0.2265 0.0492 -0.9728
vn -0.2475 -0.0666 -0.9666
vt 0.693490 0.538144
vt 0.660066 0.541629
vt 0.653289 0.513123
vt 0.690566 0.511763
vt 0.636059 0.542554
vt 0.626997 0.513134
vt 0.633782 0.866186
vt 0.659111 0.861566
vt 0.666019 0.881435
vt 0.638837 0.887160
vt 0.689141 0.851527
vt 0.698232 0.868686
vt 0.649777 0.480577
vt 0.689900 0.481016
vt 0.621455 0.479710
vt 0.311385 0.791207
vt 0.292903 0.787626
vt 0.287351 0.754562
vt 0.306974 0.757544
vt 0.707364 0.882056
vt 0.673397 0.896650
vt 0.649389 0.445363
vt 0.690750 0.447535
vt 0.620073 0.443624
vt 0.286617 0.719145
vt 0.306880 0.721420
vt 0.391195 0.816715
vt 0.374087 0.786230
vt 0.394040 0.784128
vt 0.412484 0.815521
vt 0.651978 0.409486
vt 0.692722 0.413371
vt 0.623168 0.406934
vt 0.291277 0.683459
vt 0.311385 0.684908
vt 0.418189 0.778634
vt 0.437504 0.809373
vt 0.657734 0.375156
vt 0.696102 0.380786
vt 0.630566 0.371857
vt 0.455747 0.830595
vt 0.464515 0.798386
vt 0.482542 0.818234
vt 0.444705 0.769788
vt 0.666842 0.344223
vt 0.701565 0.351961
vt 0.641712 0.340117
vt 0.491518 0.782918
vt 0.509320 0.801004
vt 0.471067 0.757645
vt 0.728103 0.550638
vt 0.700825 0.559504
vt 0.730336 0.534860
vt 0.670597 0.565659
vt 0.933314 0.548980
vt 0.958274 0.551265
vt 0.961930 0.576121
vt 0.935770 0.572712
vt 0.629449 0.841413
vt 0.653920 0.837912
vt 0.682893 0.831049
vt 0.714565 0.819773
vt 0.724817 0.829161
vt 0.737415 0.840575
vt 0.748601 0.850518
vt 0.358171 0.737595
vt 0.376604 0.734178
vt 0.399426 0.729601
vt 0.424916 0.724220
vt 0.450214 0.718679
vt 0.469265 0.714400
vt 0.494464 0.741060
vt 0.516831 0.762978
vt 0.535131 0.779736
vt 0.656044 0.312615
vt 0.679881 0.317684
vt 0.711372 0.328342
vt 0.739690 0.359332
vt 0.739179 0.341308
vt 0.739860 0.386104
vt 0.739306 0.417106
vt 0.737938 0.449697
vt 0.735824 0.481593
vt 0.733169 0.510687
vt 0.863540 0.791961
vt 0.847323 0.790272
vt 0.857822 0.762745
vt 0.874161 0.764255
vt 0.808986 0.040831
vt 0.793665 0.039977
vt 0.803132 0.010153
vt 0.818475 0.011188
vt 0.787792 0.072769
vt 0.773838 0.072476
vt 0.779619 0.039862
vt 0.803051 0.073464
vt 0.785991 0.106930
vt 0.772153 0.106472
vt 0.801136 0.107477
vt 0.788369 0.140422
vt 0.774686 0.139799
vt 0.803346 0.140815
vt 0.794560 0.171358
vt 0.781036 0.170562
vt 0.809335 0.171585
vt 0.803914 0.198512
vt 0.790503 0.197535
vt 0.818475 0.198560
vt 0.542974 0.736454
vt 0.527842 0.713451
vt 0.566135 0.700616
vt 0.575478 0.717212
vt 0.027329 0.801247
vt 0.052050 0.814543
vt 0.027333 0.843168
vt 0.010153 0.833272
vt 0.290654 0.383669
vt 0.288492 0.415005
vt 0.257748 0.397434
vt 0.259920 0.375773
vt 0.529472 0.689764
vt 0.565588 0.684347
vt 0.076213 0.833798
vt 0.081459 0.856723
vt 0.048228 0.872866
vt 0.043509 0.857588
vt 0.063191 0.955655
vt 0.044613 0.977275
vt 0.022176 0.958106
vt 0.035976 0.942796
vt 0.558992 0.755260
vt 0.586163 0.730819
vt 0.306020 0.079509
vt 0.320236 0.111489
vt 0.308314 0.113178
vt 0.295161 0.083590
vt 0.283187 0.437758
vt 0.253166 0.412466
vt 0.534089 0.657916
vt 0.567603 0.661880
vt 0.078176 0.923920
vt 0.046936 0.920103
vt 0.328728 0.146718
vt 0.330741 0.183462
vt 0.318033 0.179769
vt 0.316171 0.145772
vt 0.262161 0.454103
vt 0.239014 0.424816
vt 0.544595 0.622716
vt 0.574623 0.636751
vt 0.930274 0.704501
vt 0.908997 0.706994
vt 0.906139 0.670419
vt 0.921367 0.668014
vt 0.083868 0.888004
vt 0.050709 0.894591
vt 0.239537 0.466278
vt 0.223272 0.433944
vt 0.950175 0.696941
vt 0.935519 0.661435
vt 0.326142 0.219504
vt 0.315576 0.252796
vt 0.304002 0.243918
vt 0.313778 0.213116
vt 0.560146 0.593872
vt 0.586163 0.616263
vt 0.028519 0.989847
vt 0.010153 0.966725
vt 0.286909 0.051692
vt 0.277479 0.057852
vt 0.728365 0.299449
vt 0.756336 0.333979
vt 0.698088 0.294028
vt 0.924897 0.740576
vt 0.903799 0.740313
vt 0.895435 0.772754
vt 0.889782 0.764856
vt 0.897521 0.734841
vt 0.025996 0.252796
vt 0.015131 0.219504
vt 0.026024 0.213116
vt 0.036078 0.243918
vt 0.475120 0.694847
vt 0.483965 0.667420
vt 0.494408 0.637748
vt 0.505592 0.608836
vt 0.516715 0.582924
vt 0.323379 0.378798
vt 0.327187 0.410106
vt 0.327187 0.438862
vt 0.325222 0.459260
vt 0.298612 0.475395
vt 0.272011 0.488200
vt 0.248170 0.497657
vt 0.172447 0.773311
vt 0.173443 0.758010
vt 0.182814 0.757489
vt 0.181892 0.771646
vt 0.010153 0.183462
vt 0.011701 0.146718
vt 0.022851 0.145772
vt 0.021419 0.179769
vt 0.038027 0.771047
vt 0.063678 0.781801
vt 0.094430 0.797403
vt 0.120202 0.832912
vt 0.118770 0.812432
vt 0.119828 0.861880
vt 0.116128 0.893537
vt 0.108719 0.924736
vt 0.097935 0.953063
vt 0.779612 0.326000
vt 0.750246 0.296316
vt 0.777772 0.294028
vt 0.803688 0.320552
vt 0.105316 0.775054
vt 0.074694 0.755092
vt 0.085980 0.732149
vt 0.117772 0.755992
vt 0.048764 0.742841
vt 0.058762 0.718198
vt 0.308164 0.643279
vt 0.295601 0.663154
vt 0.286617 0.659500
vt 0.298241 0.641111
vt 0.019694 0.111489
vt 0.033448 0.079509
vt 0.042972 0.083590
vt 0.030247 0.113178
vt 0.373522 0.527015
vt 0.378005 0.503078
vt 0.409250 0.512339
vt 0.405517 0.538189
vt 0.385293 0.472024
vt 0.414717 0.478080
vt 0.551825 0.060085
vt 0.581429 0.052660
vt 0.592355 0.086137
vt 0.560396 0.091981
vt 0.132966 0.648092
vt 0.114608 0.637970
vt 0.137365 0.610079
vt 0.156026 0.621430
vt 0.316027 0.597192
vt 0.315036 0.619056
vt 0.304599 0.618700
vt 0.305516 0.598471
vt 0.090071 0.661333
vt 0.085057 0.654144
vt 0.107760 0.632528
vt 0.443748 0.518343
vt 0.440707 0.545733
vt 0.447740 0.481982
vt 0.597925 0.121683
vt 0.565255 0.125860
vt 0.157010 0.578928
vt 0.175457 0.591148
vt 0.128815 0.606723
vt 0.146991 0.577901
vt 0.182730 0.514431
vt 0.172344 0.546388
vt 0.161178 0.547794
vt 0.170788 0.518228
vt 0.479625 0.521238
vt 0.477354 0.549106
vt 0.482179 0.484326
vt 0.598040 0.157093
vt 0.566381 0.159462
vt 0.189855 0.558951
vt 0.798957 0.238271
vt 0.800828 0.218865
vt 0.809514 0.220235
vt 0.807782 0.238190
vt 0.064716 0.679640
vt 0.061598 0.671081
vt 0.514667 0.521183
vt 0.513242 0.548124
vt 0.515745 0.485360
vt 0.592762 0.190335
vt 0.563612 0.190723
vt 0.198867 0.526969
vt 0.233334 0.010153
vt 0.263873 0.028830
vt 0.256166 0.036701
vt 0.227910 0.019420
vt 0.052195 0.051692
vt 0.060317 0.057852
vt 0.546894 0.518021
vt 0.546339 0.543065
vt 0.546404 0.484700
vt 0.582470 0.219973
vt 0.556889 0.217971
vt 0.188166 0.484544
vt 0.202967 0.497093
vt 0.295858 0.846860
vt 0.297082 0.865961
vt 0.287750 0.864849
vt 0.286617 0.847176
vt 0.834653 0.862348
vt 0.816367 0.868833
vt 0.816627 0.853750
vt 0.833546 0.847750
vt 0.574984 0.511618
vt 0.575330 0.534527
vt 0.572620 0.481665
vt 0.501732 0.024436
vt 0.522860 0.010153
vt 0.539668 0.032318
vt 0.506852 0.041910
vt 0.800828 0.256706
vt 0.809514 0.255247
vt 0.869506 0.828369
vt 0.852746 0.848723
vt 0.850285 0.835144
vt 0.865792 0.816312
vt 0.280049 0.515941
vt 0.255854 0.526830
vt 0.351046 0.490029
vt 0.360905 0.461788
vt 0.376336 0.429295
vt 0.394602 0.428782
vt 0.421569 0.428676
vt 0.452594 0.429386
vt 0.485014 0.431006
vt 0.516567 0.433451
vt 0.545193 0.436491
vt 0.568853 0.439716
vt 0.584222 0.442251
vt 0.593874 0.474317
vt 0.598548 0.501515
vt 0.599768 0.523068
vt 0.883938 0.802519
vt 0.879145 0.792396
vt 0.297802 0.882994
vt 0.288415 0.880608
vt 0.935770 0.292516
vt 0.961930 0.287470
vt 0.958274 0.306104
vt 0.933314 0.310197
vt 0.567294 0.245527
vt 0.545112 0.240574
vt 0.524627 0.216835
vt 0.523107 0.233020
vt 0.525638 0.192232
vt 0.525165 0.162872
vt 0.522861 0.130948
vt 0.518736 0.098591
vt 0.513138 0.068061
vt 0.898733 0.339652
vt 0.929639 0.332570
vt 0.925617 0.359485
vt 0.892665 0.364940
vt 0.955232 0.329249
vt 0.952867 0.356823
vt 0.058192 0.391588
vt 0.082107 0.381107
vt 0.077689 0.394873
vt 0.055562 0.404570
vt 0.231639 0.342241
vt 0.202418 0.352071
vt 0.199306 0.335769
vt 0.226343 0.326674
vt 0.623038 0.619604
vt 0.648447 0.621415
vt 0.648276 0.648280
vt 0.621085 0.647195
vt 0.679190 0.625920
vt 0.681502 0.651236
vt 0.922543 0.390370
vt 0.888005 0.394471
vt 0.951337 0.388333
vt 0.171452 0.355468
vt 0.140408 0.352071
vt 0.141934 0.335769
vt 0.170656 0.338912
vt 0.110985 0.342241
vt 0.084421 0.326839
vt 0.090133 0.312424
vt 0.114711 0.326674
vt 0.648863 0.679104
vt 0.620074 0.678703
vt 0.683924 0.680805
vt 0.921363 0.423868
vt 0.886256 0.426554
vt 0.950802 0.422534
vt 0.172309 0.736446
vt 0.171871 0.718198
vt 0.181359 0.720655
vt 0.181765 0.737538
vt 0.295601 0.547135
vt 0.305850 0.561947
vt 0.296099 0.565861
vt 0.286617 0.552157
vt 0.649520 0.712580
vt 0.620074 0.712884
vt 0.685227 0.713053
vt 0.922543 0.458136
vt 0.888005 0.459245
vt 0.951337 0.457591
vt 0.902330 0.704014
vt 0.899686 0.670174
vt 0.649855 0.746887
vt 0.621086 0.747908
vt 0.684878 0.746061
vt 0.925617 0.491282
vt 0.892665 0.490574
vt 0.952867 0.491578
vt 0.061282 0.306675
vt 0.068724 0.293768
vt 0.075134 0.028830
vt 0.081541 0.036701
vt 0.650205 0.780110
vt 0.623055 0.781851
vt 0.683354 0.777821
vt 0.929639 0.521790
vt 0.898733 0.518735
vt 0.955232 0.523036
vt 0.165127 0.394709
vt 0.177589 0.411958
vt 0.166031 0.423417
vt 0.154500 0.407458
vt 0.314123 0.581197
vt 0.303754 0.583672
vt 0.651216 0.810699
vt 0.625871 0.813253
vt 0.681832 0.806491
vt 0.526356 0.258920
vt 0.505978 0.242122
vt 0.903300 0.319594
vt 0.128171 0.376111
vt 0.148385 0.382490
vt 0.139011 0.396153
vt 0.120309 0.390251
vt 0.105685 0.375773
vt 0.099504 0.389938
vt 0.625865 0.596426
vt 0.650425 0.599015
vt 0.679594 0.605617
vt 0.711609 0.617759
vt 0.717734 0.633102
vt 0.724523 0.656537
vt 0.729442 0.684619
vt 0.731487 0.715283
vt 0.730348 0.746550
vt 0.726276 0.776334
vt 0.720208 0.802203
vt 0.141223 0.790331
vt 0.140508 0.767476
vt 0.149923 0.768234
vt 0.150586 0.789379
vt 0.140789 0.740964
vt 0.142283 0.718198
vt 0.151566 0.722641
vt 0.150184 0.743703
vt 0.903300 0.542798
vt 0.743505 0.558326
vt 0.715185 0.576121
vt 0.862258 0.491595
vt 0.871159 0.517162
vt 0.856032 0.461957
vt 0.853825 0.430637
vt 0.856032 0.399727
vt 0.862258 0.371245
vt 0.501987 0.273722
vt 0.481281 0.252707
vt 0.766346 0.357421
vt 0.793064 0.352828
vt 0.800937 0.383693
vt 0.770949 0.385850
vt 0.818819 0.349146
vt 0.828771 0.381642
vt 0.356707 0.045302
vt 0.385341 0.040575
vt 0.381774 0.073699
vt 0.352187 0.078026
vt 0.416830 0.038916
vt 0.414579 0.071400
vt 0.449015 0.039897
vt 0.448607 0.070615
vt 0.479533 0.042055
vt 0.481868 0.070143
vt 0.804231 0.417504
vt 0.772409 0.417817
vt 0.833520 0.416994
vt 0.381555 0.109630
vt 0.351046 0.113471
vt 0.415522 0.106623
vt 0.450863 0.104197
vt 0.485669 0.101768
vt 0.803514 0.452418
vt 0.771374 0.451152
vt 0.833108 0.453436
vt 0.384853 0.146583
vt 0.354056 0.149785
vt 0.419070 0.142879
vt 0.454585 0.138909
vt 0.489548 0.134887
vt 0.799340 0.486431
vt 0.768281 0.483706
vt 0.827871 0.488861
vt 0.391468 0.182334
vt 0.361357 0.184827
vt 0.424623 0.178107
vt 0.458957 0.172808
vt 0.492808 0.167403
vt 0.791628 0.517671
vt 0.763069 0.513472
vt 0.818063 0.521334
vt 0.400835 0.214884
vt 0.372005 0.216737
vt 0.432141 0.210349
vt 0.464279 0.203979
vt 0.495705 0.197266
vt 0.780227 0.544689
vt 0.755449 0.538696
vt 0.804099 0.549536
vt 0.412247 0.242981
vt 0.384665 0.244306
vt 0.441696 0.238248
vt 0.471260 0.230878
vt 0.499153 0.222610
vt 0.363580 0.016446
vt 0.391951 0.011256
vt 0.422829 0.010153
vt 0.453847 0.012973
vt 0.481981 0.018663
vt 0.453533 0.261223
vt 0.425155 0.266211
vt 0.398092 0.267112
vt 0.786258 0.572933
vt 0.764436 0.566825
vt 0.392719 0.402397
vt 0.387943 0.376064
vt 0.419009 0.368376
vt 0.421347 0.397916
vt 0.383864 0.350804
vt 0.416551 0.341091
vt 0.484590 0.574663
vt 0.472667 0.600748
vt 0.440656 0.596309
vt 0.453663 0.569411
vt 0.461973 0.630251
vt 0.430205 0.627063
vt 0.453553 0.661152
vt 0.423357 0.659813
vt 0.448730 0.691136
vt 0.421166 0.692612
vt 0.452804 0.365309
vt 0.453317 0.396642
vt 0.451865 0.336609
vt 0.415334 0.317684
vt 0.451235 0.312225
vt 0.400563 0.627734
vt 0.410757 0.595880
vt 0.395004 0.661784
vt 0.394543 0.696152
vt 0.487486 0.366299
vt 0.486451 0.397935
vt 0.488050 0.337309
vt 0.488078 0.312684
vt 0.374862 0.631752
vt 0.384635 0.599668
vt 0.370413 0.665961
vt 0.371133 0.700478
vt 0.521083 0.370786
vt 0.518626 0.401349
vt 0.523038 0.342847
vt 0.523681 0.319034
vt 0.487554 0.294028
vt 0.522555 0.300718
vt 0.351046 0.671522
vt 0.354650 0.638512
vt 0.352500 0.704883
vt 0.551786 0.378829
vt 0.547890 0.406919
vt 0.554959 0.352953
vt 0.556080 0.330592
vt 0.796062 0.724357
vt 0.793255 0.759815
vt 0.776681 0.754416
vt 0.778953 0.720639
vt 0.783976 0.793635
vt 0.768848 0.786746
vt 0.768870 0.824179
vt 0.755740 0.815851
vt 0.578214 0.390552
vt 0.572562 0.414893
vt 0.582557 0.367201
vt 0.775700 0.687345
vt 0.757056 0.717606
vt 0.754442 0.686052
vt 0.755373 0.749705
vt 0.749398 0.780324
vt 0.739421 0.807373
vt 0.368931 0.412313
vt 0.360725 0.389362
vt 0.354860 0.365736
vt 0.747592 0.656915
vt 0.599768 0.406631
vt 0.591673 0.427134
vt 0.296976 0.831451
vt 0.287651 0.832919
vt 0.189006 0.457419
vt 0.175817 0.490575
vt 0.176594 0.465479
vt 0.300137 0.282007
vt 0.289718 0.270945
vt 0.041688 0.282007
vt 0.050596 0.270945
vt 0.171871 0.792770
vt 0.181359 0.789650
vt 0.280794 0.306675
vt 0.271821 0.293768
vt 0.099580 0.010153
vt 0.104159 0.019420
vt 0.010153 0.427583
vt 0.034145 0.407034
vt 0.033314 0.418861
vt 0.011115 0.437874
vt 0.257934 0.326839
vt 0.250671 0.312424
vt 0.039996 0.692400
vt 0.010153 0.697893
vt 0.011115 0.687970
vt 0.038727 0.682888
vt 0.185510 0.433144
vt 0.173359 0.443019
vt 0.142283 0.806462
vt 0.151566 0.804304
vt 0.297802 0.811512
vt 0.288415 0.814471
vt 0.228432 0.792033
vt 0.245701 0.792484
vt 0.248908 0.815691
vt 0.231476 0.815078
vt 0.262977 0.791796
vt 0.266312 0.814824
vt 0.865385 0.732739
vt 0.881863 0.734026
vt 0.886382 0.703377
vt 0.869735 0.701414
vt 0.876570 0.668299
vt 0.888307 0.669877
vt 0.689775 0.084079
vt 0.708052 0.088215
vt 0.698882 0.120108
vt 0.685876 0.117339
vt 0.726300 0.094043
vt 0.711776 0.124367
vt 0.699084 0.055443
vt 0.716934 0.060134
vt 0.734914 0.065679
vt 0.743647 0.039157
vt 0.725832 0.033459
vt 0.734172 0.010153
vt 0.751848 0.015958
vt 0.072525 0.646673
vt 0.059785 0.637870
vt 0.082576 0.616335
vt 0.095425 0.624965
vt 0.116653 0.599085
vt 0.103743 0.590630
vt 0.135009 0.570206
vt 0.122102 0.561954
vt 0.149397 0.540054
vt 0.136561 0.532049
vt 0.159208 0.510429
vt 0.146483 0.502704
vt 0.164406 0.482687
vt 0.151800 0.475251
vt 0.708002 0.028994
vt 0.152780 0.450298
vt 0.165285 0.457476
vt 0.235405 0.548040
vt 0.252859 0.547135
vt 0.249056 0.564447
vt 0.231769 0.565230
vt 0.228640 0.586600
vt 0.245840 0.585966
vt 0.243250 0.611598
vt 0.226077 0.612077
vt 0.263069 0.586488
vt 0.260514 0.611951
vt 0.241408 0.640871
vt 0.224232 0.641207
vt 0.258723 0.641063
vt 0.240453 0.672641
vt 0.223272 0.672839
vt 0.257795 0.672675
vt 0.240461 0.705220
vt 0.223289 0.705279
vt 0.257781 0.705093
vt 0.241407 0.736837
vt 0.224243 0.736742
vt 0.258681 0.736538
vt 0.243189 0.766147
vt 0.226002 0.765876
vt 0.260433 0.765655
vt 0.266312 0.565129
vt 0.717407 0.247712
vt 0.697718 0.251170
vt 0.698916 0.227699
vt 0.728156 0.239238
vt 0.679496 0.250258
vt 0.682894 0.230607
vt 0.887179 0.644927
vt 0.897442 0.644449
vt 0.875919 0.642932
vt 0.861145 0.664023
vt 0.861708 0.637469
vt 0.845079 0.656784
vt 0.835747 0.644963
vt 0.711621 0.222222
vt 0.740265 0.224505
vt 0.851640 0.624902
vt 0.839627 0.599596
vt 0.841092 0.597999
vt 0.847098 0.610652
vt 0.853104 0.623305
vt 0.146992 0.839431
vt 0.143921 0.854962
vt 0.140782 0.855240
vt 0.142317 0.847475
vt 0.143853 0.839709
vt 0.143647 0.826767
vt 0.142180 0.833377
vt 0.140508 0.827045
vt 0.171871 0.848512
vt 0.175081 0.832804
vt 0.178225 0.833022
vt 0.176620 0.840876
vt 0.175015 0.848730
vt 0.824922 0.627119
vt 0.725442 0.201162
vt 0.749437 0.203069
vt 0.321247 0.811740
vt 0.323132 0.834946
vt 0.319992 0.834718
vt 0.319050 0.823115
vt 0.318107 0.811512
vt 0.175318 0.864618
vt 0.176738 0.856782
vt 0.178461 0.864835
vt 0.326664 0.851022
vt 0.323524 0.850794
vt 0.321758 0.842756
vt 0.176696 0.887788
vt 0.179150 0.876421
vt 0.179839 0.888006
vt 0.816367 0.604546
vt 0.724067 0.173683
vt 0.751848 0.179330
vt 0.323486 0.865885
vt 0.320347 0.865656
vt 0.321935 0.858225
vt 0.863173 0.635872
vt 0.870278 0.638604
vt 0.877384 0.641335
vt 0.858139 0.629588
vt 0.143647 0.882923
vt 0.140508 0.883201
vt 0.140645 0.869220
vt 0.636094 0.175614
vt 0.618345 0.165858
vt 0.627946 0.143616
vt 0.651031 0.152532
vt 0.716554 0.158909
vt 0.748638 0.159356
vt 0.321930 0.876870
vt 0.318790 0.876642
vt 0.319569 0.871149
vt 0.176379 0.821867
vt 0.176696 0.813075
vt 0.179839 0.813293
vt 0.179681 0.817689
vt 0.179522 0.822085
vt 0.321247 0.886048
vt 0.318107 0.885819
vt 0.318449 0.881231
vt 0.178874 0.827553
vt 0.640652 0.127989
vt 0.665271 0.144054
vt 0.728072 0.132788
vt 0.743632 0.145434
vt 0.703736 0.149321
vt 0.691963 0.144545
vt 0.679726 0.142581
vt 0.669067 0.116375
vt 0.651847 0.118710
vt 0.618345 0.271475
vt 0.868712 0.626671
vt 0.864224 0.621592
vt 0.849243 0.024735
vt 0.850931 0.014821
vt 0.863082 0.010153
vt 0.862584 0.021114
vt 0.876918 0.024056
vt 0.876219 0.014200
vt 0.889357 0.018247
vt 0.886898 0.031024
vt 0.891413 0.075695
vt 0.894748 0.067910
vt 0.906786 0.068090
vt 0.903917 0.075561
vt 0.896188 0.061932
vt 0.896641 0.055548
vt 0.908179 0.055462
vt 0.907483 0.061776
vt 0.896199 0.049292
vt 0.894789 0.043485
vt 0.906739 0.043151
vt 0.907459 0.049307
vt 0.891663 0.036366
vt 0.895373 0.023945
vt 0.901389 0.029643
vt 0.904064 0.036397
vt 0.777116 0.257428
vt 0.776377 0.263089
vt 0.773294 0.262862
vt 0.774033 0.257201
vt 0.226357 0.880444
vt 0.228459 0.892007
vt 0.225374 0.892252
vt 0.223272 0.880689
vt 0.894961 0.088657
vt 0.901047 0.083033
vt 0.888875 0.094282
vt 0.886574 0.080938
vt 0.226600 0.865801
vt 0.223515 0.866046
vt 0.863007 0.238268
vt 0.863533 0.232586
vt 0.866624 0.232742
vt 0.866098 0.238423
vt 0.775579 0.268482
vt 0.772495 0.268255
vt 0.226952 0.853453
vt 0.223866 0.853698
vt 0.228537 0.847023
vt 0.225452 0.847268
vt 0.876192 0.629858
vt 0.870149 0.625102
vt 0.877629 0.628289
vt 0.861603 0.246683
vt 0.864694 0.246839
vt 0.775237 0.273285
vt 0.772153 0.273058
vt 0.865661 0.620023
vt 0.875841 0.098681
vt 0.876583 0.088090
vt 0.862807 0.103081
vt 0.862355 0.091474
vt 0.856524 0.611693
vt 0.857961 0.610124
vt 0.864165 0.222552
vt 0.864229 0.218865
vt 0.867320 0.219020
vt 0.867256 0.222707
vt 0.226357 0.835996
vt 0.226954 0.840114
vt 0.223868 0.840359
vt 0.223272 0.836241
vt 0.840246 0.032169
vt 0.838780 0.019488
vt 0.851162 0.597995
vt 0.852600 0.596426
vt 0.775237 0.219092
vt 0.776263 0.230592
vt 0.773179 0.230364
vt 0.772153 0.218865
vt 0.864089 0.227205
vt 0.867180 0.227360
vt 0.778652 0.249426
vt 0.775569 0.249199
vt 0.776985 0.242468
vt 0.773901 0.242241
vt 0.850793 0.099296
vt 0.849146 0.088764
vt 0.838780 0.095511
vt 0.840219 0.082076
vt 0.863395 0.253627
vt 0.866486 0.253782
vt 0.864229 0.265450
vt 0.867320 0.265606
vt 0.888643 0.643330
vt 0.883014 0.642332
vt 0.881689 0.631477
vt 0.887341 0.632221
vt 0.829819 0.231340
vt 0.830889 0.225102
vt 0.839977 0.227519
vt 0.839718 0.233616
vt 0.831960 0.218865
vt 0.841298 0.221273
vt 0.248842 0.847990
vt 0.248842 0.835996
vt 0.254703 0.838675
vt 0.255810 0.850334
vt 0.832377 0.247421
vt 0.831098 0.239380
vt 0.841298 0.242054
vt 0.834976 0.253832
vt 0.354566 0.857642
vt 0.351046 0.853003
vt 0.359935 0.850900
vt 0.359935 0.861205
vt 0.841534 0.176239
vt 0.838780 0.170480
vt 0.847498 0.166768
vt 0.849887 0.172836
vt 0.883126 0.629908
vt 0.876131 0.619136
vt 0.881822 0.619418
vt 0.866901 0.193720
vt 0.862311 0.174786
vt 0.872346 0.170667
vt 0.880223 0.191642
vt 0.859950 0.168717
vt 0.857590 0.162647
vt 0.867682 0.158526
vt 0.870014 0.164597
vt 0.855482 0.156565
vt 0.853373 0.150483
vt 0.863418 0.146396
vt 0.865550 0.152461
vt 0.892372 0.183499
vt 0.883043 0.166466
vt 0.893739 0.162266
vt 0.899232 0.173305
vt 0.880733 0.160377
vt 0.878424 0.154287
vt 0.889167 0.150048
vt 0.891453 0.156157
vt 0.876263 0.148226
vt 0.874101 0.142166
vt 0.884784 0.137935
vt 0.886975 0.143992
vt 0.882090 0.126426
vt 0.888421 0.129766
vt 0.893839 0.135344
vt 0.897189 0.140291
vt 0.899790 0.145998
vt 0.901596 0.152138
vt 0.902337 0.158242
vt 0.901934 0.166701
vt 0.870303 0.123386
vt 0.855845 0.125640
vt 0.844612 0.133696
vt 0.843328 0.154570
vt 0.838780 0.143806
vt 0.845413 0.160669
vt 0.852275 0.178905
vt 0.856199 0.190574
vt 0.888778 0.630652
vt 0.887513 0.619701
vt 0.845040 0.181234
s 0
usemtl Material
f 89/1/1 90/2/1 96/3/1 95/4/1
f 90/2/2 91/5/2 97/6/2 96/3/2
f 92/7/3 93/8/3 99/9/3 98/10/3
f 93/8/4 94/11/4 100/12/4 99/9/4
f 95/4/5 96/3/5 102/13/5 101/14/5
f 96/3/6 97/6/6 103/15/6 102/13/6
f 98/16/7 99/17/7 105/18/7 104/19/7
f 99/9/8 100/12/8 106/20/8 105/21/8
f 101/14/9 102/13/9 108/22/9 107/23/9
f 102/13/10 103/15/10 109/24/10 108/22/10
f 104/19/11 105/18/11 111/25/11 110/26/11
f 105/27/12 106/28/12 112/29/12 111/30/12
f 107/23/13 108/22/13 114/31/13 113/32/13
f 108/22/14 109/24/14 115/33/14 114/31/14
f 110/26/15 111/25/15 117/34/15 116/35/15
f 111/30/16 112/29/16 118/36/16 117/37/16
f 113/32/17 114/31/17 120/38/17 119/39/17
f 114/31/18 115/33/18 121/40/18 120/38/18
f 116/41/19 117/37/19 123/42/19 122/43/19
f 117/37/20 118/36/20 124/44/20 123/42/20
f 119/39/21 120/38/21 126/45/21 125/46/21
f 120/38/22 121/40/22 127/47/22 126/45/22
f 122/43/23 123/42/23 129/48/23 128/49/23
f 123/42/24 124/44/24 130/50/24 129/48/24
f 1/51/25 16/52/25 89/1/25 15/53/25
f 16/52/26 17/54/26 90/2/26 89/1/26
f 17/55/27 18/56/27 91/57/27 90/58/27
f 19/59/28 20/60/28 93/8/28 92/7/28
f 20/60/29 21/61/29 94/11/29 93/8/29
f 21/61/30 2/62/30 22/63/30 94/11/30
f 94/11/31 22/63/31 23/64/31 100/12/31
f 100/12/32 23/64/32 24/65/32 106/20/32
f 106/28/33 24/66/33 25/67/33 112/29/33
f 112/29/34 25/67/34 26/68/34 118/36/34
f 118/36/35 26/68/35 27/69/35 124/44/35
f 124/44/36 27/69/36 28/70/36 130/50/36
f 130/50/37 28/70/37 4/71/37 29/72/37
f 129/48/38 130/50/38 29/72/38 30/73/38
f 128/49/39 129/48/39 30/73/39 31/74/39
f 126/45/40 127/47/40 32/75/40 33/76/40
f 125/46/41 126/45/41 33/76/41 34/77/41
f 9/78/42 125/46/42 34/77/42 3/79/42
f 10/80/43 119/39/43 125/46/43 9/78/43
f 11/81/44 113/32/44 119/39/44 10/80/44
f 12/82/45 107/23/45 113/32/45 11/81/45
f 13/83/46 101/14/46 107/23/46 12/82/46
f 14/84/47 95/4/47 101/14/47 13/83/47
f 15/53/48 89/1/48 95/4/48 14/84/48
f 385/85/49 386/86/49 389/87/49 388/88/49
f 384/89/50 385/90/50 388/91/50 387/92/50
f 382/93/51 383/94/51 386/95/51 385/90/51
f 138/96/52 382/93/52 385/90/52 384/89/52
f 140/97/53 139/98/53 383/94/53 382/93/53
f 141/99/54 140/97/54 382/93/54 138/96/54
f 145/100/55 142/101/55 139/98/55 140/97/55
f 146/102/56 145/100/56 140/97/56 141/99/56
f 148/103/57 147/104/57 142/101/57 145/100/57
f 149/105/58 148/103/58 145/100/58 146/102/58
f 153/106/59 152/107/59 147/104/59 148/103/59
f 154/108/60 153/106/60 148/103/60 149/105/60
f 135/109/61 136/110/61 365/111/61 364/112/61
f 174/113/62 173/114/62 377/115/62 378/116/62
f 164/117/63 171/118/63 375/119/63 373/120/63
f 136/110/64 143/121/64 367/122/64 365/111/64
f 172/123/65 165/124/65 374/125/65 376/126/65
f 144/127/66 137/128/66 366/129/66 368/130/66
f 134/131/67 135/109/67 364/112/67 363/132/67
f 173/114/68 172/123/68 376/126/68 377/115/68
f 181/133/69 187/134/69 407/135/69 404/136/69
f 171/118/70 177/137/70 381/138/70 375/119/70
f 143/121/71 150/139/71 369/140/71 367/122/71
f 151/141/72 144/127/72 368/130/72 370/142/72
f 193/143/73 199/144/73 413/145/73 410/146/73
f 177/137/74 176/147/74 380/148/74 381/138/74
f 150/139/75 157/149/75 371/150/75 369/140/75
f 132/151/76 133/152/76 362/153/76 361/154/76
f 158/155/77 151/141/77 370/142/77 372/156/77
f 176/147/78 175/157/78 379/158/78 380/148/78
f 131/159/79 132/151/79 361/154/79 360/160/79
f 205/161/80 211/162/80 419/163/80 416/164/80
f 157/149/81 164/165/81 373/166/81 371/150/81
f 165/124/82 158/155/82 372/156/82 374/125/82
f 137/128/83 131/167/83 360/168/83 366/129/83
f 51/169/84 181/133/84 404/136/84 162/170/84
f 3/79/85 34/77/85 131/171/85 41/172/85
f 34/77/86 33/76/86 132/173/86 131/171/86
f 33/174/87 32/175/87 133/152/87 132/151/87
f 32/175/88 127/176/88 387/177/88 163/178/88
f 98/179/89 104/180/89 142/181/89 147/182/89
f 31/74/90 30/73/90 135/109/90 134/131/90
f 30/73/91 29/72/91 136/110/91 135/109/91
f 29/72/92 4/71/92 42/183/92 136/110/92
f 136/110/93 42/183/93 43/184/93 143/121/93
f 143/121/94 43/184/94 44/185/94 150/139/94
f 150/139/95 44/185/95 45/186/95 157/149/95
f 157/149/96 45/186/96 46/187/96 164/165/96
f 164/117/97 46/188/97 47/189/97 171/118/97
f 171/118/98 47/189/98 48/190/98 177/137/98
f 177/137/99 48/190/99 8/191/99 49/192/99
f 176/147/100 177/137/100 49/192/100 50/193/100
f 175/157/101 176/147/101 50/193/101 51/194/101
f 366/195/102 360/196/102 444/197/102 448/198/102
f 110/199/103 116/200/103 383/201/103 139/202/103
f 173/114/104 174/113/104 52/203/104 53/204/104
f 172/123/105 173/114/105 53/204/105 54/205/105
f 35/206/106 172/123/106 54/205/106 7/207/106
f 36/208/107 165/124/107 172/123/107 35/206/107
f 37/209/108 158/155/108 165/124/108 36/208/108
f 38/210/109 151/141/109 158/155/109 37/209/109
f 39/211/110 144/127/110 151/141/110 38/210/110
f 40/212/111 137/213/111 144/214/111 39/215/111
f 41/172/112 131/171/112 137/213/112 40/212/112
f 178/216/113 179/217/113 185/218/113 184/219/113
f 179/217/114 180/220/114 186/221/114 185/218/114
f 370/222/115 368/223/115 455/224/115 459/225/115
f 122/226/116 128/227/116 389/228/116 386/229/116
f 181/230/117 182/231/117 188/232/117 187/233/117
f 182/231/118 183/234/118 189/235/118 188/232/118
f 184/236/119 185/237/119 191/238/119 190/239/119
f 185/240/120 186/241/120 192/242/120 191/243/120
f 374/244/121 372/245/121 463/246/121 467/247/121
f 186/241/122 180/248/122 402/249/122 405/250/122
f 187/233/123 188/232/123 194/251/123 193/252/123
f 188/232/124 189/235/124 195/253/124 194/251/124
f 190/239/125 191/238/125 197/254/125 196/255/125
f 191/243/126 192/242/126 198/256/126 197/257/126
f 198/256/127 192/242/127 408/258/127 411/259/127
f 210/260/128 204/261/128 414/262/128 417/263/128
f 193/252/129 194/251/129 200/264/129 199/265/129
f 194/251/130 195/253/130 201/266/130 200/264/130
f 196/255/131 197/254/131 203/267/131 202/268/131
f 197/257/132 198/256/132 204/261/132 203/269/132
f 364/270/133 365/271/133 447/272/133 446/273/133
f 180/248/134 52/274/134 160/275/134 402/249/134
f 199/265/135 200/264/135 206/276/135 205/277/135
f 200/264/136 201/266/136 207/278/136 206/276/136
f 202/268/137 203/267/137 209/279/137 208/280/137
f 203/269/138 204/261/138 210/260/138 209/281/138
f 379/282/139 175/283/139 397/284/139 396/285/139
f 128/227/140 31/286/140 167/287/140 389/228/140
f 205/277/141 206/276/141 212/288/141 211/289/141
f 206/276/142 207/278/142 213/290/142 212/288/142
f 208/280/143 209/279/143 215/291/143 214/292/143
f 209/281/144 210/260/144 216/293/144 215/294/144
f 381/295/145 380/296/145 476/297/145 477/298/145
f 103/299/146 97/300/146 149/301/146 146/302/146
f 211/289/147 212/288/147 218/303/147 217/304/147
f 212/288/148 213/290/148 219/305/148 218/303/148
f 7/306/149 54/307/149 178/308/149 61/309/149
f 54/205/150 53/204/150 179/217/150 178/216/150
f 53/204/151 52/203/151 180/220/151 179/217/151
f 363/310/152 364/270/152 446/273/152 393/311/152
f 115/312/153 109/313/153 141/314/153 138/315/153
f 51/194/154 50/193/154 182/316/154 181/317/154
f 50/318/155 49/319/155 183/234/155 182/231/155
f 49/319/156 8/320/156 62/321/156 183/234/156
f 183/234/157 62/321/157 63/322/157 189/235/157
f 189/235/158 63/322/158 64/323/158 195/253/158
f 195/253/159 64/323/159 65/324/159 201/266/159
f 201/266/160 65/324/160 66/325/160 207/278/160
f 207/278/161 66/325/161 67/326/161 213/290/161
f 213/290/162 67/326/162 68/327/162 219/305/162
f 219/305/163 68/327/163 6/328/163 69/329/163
f 218/303/164 219/305/164 69/329/164 70/330/164
f 217/304/165 218/303/165 70/330/165 71/331/165
f 127/176/166 121/332/166 384/333/166 387/177/166
f 380/296/167 379/334/167 396/335/167 476/297/167
f 215/336/168 216/337/168 72/338/168 73/339/168
f 214/292/169 215/291/169 73/340/169 74/341/169
f 55/342/170 214/292/170 74/341/170 5/343/170
f 56/344/171 208/280/171 214/292/171 55/342/171
f 57/345/172 202/268/172 208/280/172 56/344/172
f 58/346/173 196/255/173 202/268/173 57/345/173
f 59/347/174 190/239/174 196/255/174 58/346/174
f 60/348/175 184/236/175 190/239/175 59/347/175
f 61/309/176 178/308/176 184/236/176 60/348/176
f 220/349/177 221/350/177 227/351/177 226/352/177
f 221/350/178 222/353/178 228/354/178 227/351/178
f 18/355/179 258/356/179 441/357/179 170/358/179
f 229/359/180 235/360/180 431/361/180 428/362/180
f 223/363/181 224/364/181 230/365/181 229/366/181
f 224/364/182 225/367/182 231/368/182 230/365/182
f 226/352/183 227/351/183 233/369/183 232/370/183
f 227/351/184 228/354/184 234/371/184 233/369/184
f 241/372/185 247/373/185 437/374/185 434/375/185
f 253/376/186 259/377/186 443/378/186 440/379/186
f 229/366/187 230/365/187 236/380/187 235/381/187
f 230/365/188 231/368/188 237/382/188 236/380/188
f 232/370/189 233/369/189 239/383/189 238/384/189
f 233/369/190 234/371/190 240/385/190 239/383/190
f 361/386/191 362/387/191 395/388/191 445/389/191
f 378/390/192 377/391/192 475/392/192 401/393/192
f 235/381/193 236/380/193 242/394/193 241/395/193
f 236/380/194 237/382/194 243/396/194 242/394/194
f 238/384/195 239/383/195 245/397/195 244/398/195
f 239/383/196 240/385/196 246/399/196 245/397/196
f 360/196/197 361/386/197 445/389/197 444/197/197
f 362/153/198 133/152/198 390/400/198 395/401/198
f 241/395/199 242/394/199 248/402/199 247/403/199
f 242/394/200 243/396/200 249/404/200 248/402/200
f 244/398/201 245/397/201 251/405/201 250/406/201
f 245/397/202 246/399/202 252/407/202 251/405/202
f 259/377/203 19/408/203 168/409/203 443/378/203
f 31/286/204 134/410/204 392/411/204 167/287/204
f 247/403/205 248/402/205 254/412/205 253/413/205
f 248/402/206 249/404/206 255/414/206 254/412/206
f 250/406/207 251/405/207 257/415/207 256/416/207
f 251/405/208 252/407/208 258/417/208 257/415/208
f 234/418/209 228/419/209 426/420/209 429/421/209
f 377/391/210 376/422/210 474/423/210 475/392/210
f 253/413/211 254/412/211 260/424/211 259/425/211
f 254/412/212 255/414/212 261/426/212 260/424/212
f 5/343/213 74/341/213 220/427/213 81/428/213
f 74/429/214 73/339/214 221/350/214 220/349/214
f 73/339/215 72/338/215 222/353/215 221/350/215
f 246/430/216 240/431/216 432/432/216 435/433/216
f 258/356/217 252/434/217 438/435/217 441/357/217
f 71/436/218 70/437/218 224/364/218 223/363/218
f 70/437/219 69/438/219 225/367/219 224/364/219
f 69/438/220 6/439/220 82/440/220 225/367/220
f 225/367/221 82/440/221 83/441/221 231/368/221
f 231/368/222 83/441/222 84/442/222 237/382/222
f 237/382/223 84/442/223 85/443/223 243/396/223
f 243/396/224 85/443/224 86/444/224 249/404/224
f 249/404/225 86/444/225 87/445/225 255/414/225
f 255/414/226 87/445/226 88/446/226 261/426/226
f 261/426/227 88/446/227 2/62/227 21/61/227
f 260/424/228 261/426/228 21/61/228 20/60/228
f 259/425/229 260/424/229 20/60/229 19/59/229
f 367/447/230 369/448/230 458/449/230 454/450/230
f 371/451/231 373/452/231 466/453/231 462/454/231
f 257/415/232 258/417/232 18/56/232 17/55/232
f 256/416/233 257/415/233 17/55/233 16/455/233
f 75/456/234 256/457/234 16/52/234 1/51/234
f 76/458/235 250/406/235 256/416/235 75/459/235
f 77/460/236 244/398/236 250/406/236 76/458/236
f 78/461/237 238/384/237 244/398/237 77/460/237
f 79/462/238 232/370/238 238/384/238 78/461/238
f 80/463/239 226/352/239 232/370/239 79/462/239
f 81/428/240 220/427/240 226/464/240 80/465/240
f 262/466/241 263/467/241 270/468/241 269/469/241
f 263/467/242 264/470/242 271/471/242 270/468/242
f 264/472/243 265/473/243 272/474/243 271/475/243
f 265/473/244 266/476/244 273/477/244 272/474/244
f 266/476/245 267/478/245 274/479/245 273/477/245
f 267/478/246 268/480/246 275/481/246 274/479/246
f 269/469/247 270/468/247 277/482/247 276/483/247
f 270/468/248 271/471/248 278/484/248 277/482/248
f 271/475/249 272/474/249 279/485/249 278/486/249
f 272/474/250 273/477/250 280/487/250 279/485/250
f 273/477/251 274/479/251 281/488/251 280/487/251
f 274/479/252 275/481/252 282/489/252 281/488/252
f 276/483/253 277/482/253 284/490/253 283/491/253
f 277/482/254 278/484/254 285/492/254 284/490/254
f 278/486/255 279/485/255 286/493/255 285/494/255
f 279/485/256 280/487/256 287/495/256 286/493/256
f 280/487/257 281/488/257 288/496/257 287/495/257
f 281/488/258 282/489/258 289/497/258 288/496/258
f 283/491/259 284/490/259 291/498/259 290/499/259
f 284/490/260 285/492/260 292/500/260 291/498/260
f 285/494/261 286/493/261 293/501/261 292/502/261
f 286/493/262 287/495/262 294/503/262 293/501/262
f 287/495/263 288/496/263 295/504/263 294/503/263
f 288/496/264 289/497/264 296/505/264 295/504/264
f 290/499/265 291/498/265 298/506/265 297/507/265
f 291/498/266 292/500/266 299/508/266 298/506/266
f 292/502/267 293/501/267 300/509/267 299/510/267
f 293/501/268 294/503/268 301/511/268 300/509/268
f 294/503/269 295/504/269 302/512/269 301/511/269
f 295/504/270 296/505/270 303/513/270 302/512/270
f 297/507/271 298/506/271 305/514/271 304/515/271
f 298/506/272 299/508/272 306/516/272 305/514/272
f 299/510/273 300/509/273 307/517/273 306/518/273
f 300/509/274 301/511/274 308/519/274 307/517/274
f 301/511/275 302/512/275 309/520/275 308/519/275
f 302/512/276 303/513/276 310/521/276 309/520/276
f 3/79/277 41/172/277 262/466/277 9/78/277
f 41/172/278 40/212/278 263/467/278 262/466/278
f 40/212/279 39/215/279 264/470/279 263/467/279
f 39/522/280 38/523/280 265/473/280 264/472/280
f 38/523/281 37/524/281 266/476/281 265/473/281
f 37/524/282 36/525/282 267/478/282 266/476/282
f 36/525/283 35/526/283 268/480/283 267/478/283
f 35/526/284 7/306/284 61/309/284 268/480/284
f 268/480/285 61/309/285 60/348/285 275/481/285
f 275/481/286 60/348/286 59/347/286 282/489/286
f 282/489/287 59/347/287 58/346/287 289/497/287
f 289/497/288 58/346/288 57/345/288 296/505/288
f 296/505/289 57/345/289 56/344/289 303/513/289
f 303/513/290 56/344/290 55/342/290 310/521/290
f 310/521/291 55/342/291 5/343/291 81/428/291
f 309/520/292 310/521/292 81/428/292 80/465/292
f 308/519/293 309/520/293 80/465/293 79/527/293
f 307/517/294 308/519/294 79/527/294 78/528/294
f 306/518/295 307/517/295 78/528/295 77/529/295
f 305/514/296 306/516/296 77/530/296 76/531/296
f 304/515/297 305/514/297 76/531/297 75/456/297
f 15/53/298 304/515/298 75/456/298 1/51/298
f 14/84/299 297/507/299 304/515/299 15/53/299
f 13/83/300 290/499/300 297/507/300 14/84/300
f 12/82/301 283/491/301 290/499/301 13/83/301
f 11/81/302 276/483/302 283/491/302 12/82/302
f 10/80/303 269/469/303 276/483/303 11/81/303
f 9/78/304 262/466/304 269/469/304 10/80/304
f 311/532/305 312/533/305 319/534/305 318/535/305
f 312/533/306 313/536/306 320/537/306 319/534/306
f 313/538/307 314/539/307 321/540/307 320/541/307
f 314/539/308 315/542/308 322/543/308 321/540/308
f 315/542/309 316/544/309 323/545/309 322/543/309
f 316/544/310 317/546/310 324/547/310 323/545/310
f 318/535/311 319/534/311 326/548/311 325/549/311
f 319/534/312 320/537/312 327/550/312 326/548/312
f 320/537/313 321/551/313 328/552/313 327/550/313
f 321/540/314 322/543/314 329/553/314 328/554/314
f 322/543/315 323/545/315 330/555/315 329/553/315
f 323/545/316 324/547/316 331/556/316 330/555/316
f 325/549/317 326/548/317 333/557/317 332/558/317
f 326/548/318 327/550/318 334/559/318 333/557/318
f 327/550/319 328/552/319 335/560/319 334/559/319
f 328/554/320 329/553/320 336/561/320 335/562/320
f 329/553/321 330/555/321 337/563/321 336/561/321
f 330/555/322 331/556/322 338/564/322 337/563/322
f 332/558/323 333/557/323 340/565/323 339/566/323
f 333/557/324 334/559/324 341/567/324 340/565/324
f 334/559/325 335/560/325 342/568/325 341/567/325
f 335/560/326 336/569/326 343/570/326 342/568/326
f 336/561/327 337/563/327 344/571/327 343/572/327
f 337/563/328 338/564/328 345/573/328 344/571/328
f 339/566/329 340/565/329 347/574/329 346/575/329
f 340/565/330 341/567/330 348/576/330 347/574/330
f 341/567/331 342/568/331 349/577/331 348/576/331
f 342/578/332 343/579/332 350/580/332 349/581/332
f 343/579/333 344/582/333 351/583/333 350/580/333
f 344/582/334 345/584/334 352/585/334 351/583/334
f 346/575/335 347/574/335 354/586/335 353/587/335
f 347/574/336 348/576/336 355/588/336 354/586/336
f 348/589/337 349/581/337 356/590/337 355/591/337
f 349/581/338 350/580/338 357/592/338 356/590/338
f 350/580/339 351/583/339 358/593/339 357/592/339
f 351/583/340 352/585/340 359/594/340 358/593/340
f 8/320/341 48/595/341 311/532/341 62/321/341
f 48/595/342 47/596/342 312/533/342 311/532/342
f 47/596/343 46/597/343 313/536/343 312/533/343
f 46/187/344 45/186/344 314/539/344 313/538/344
f 45/186/345 44/185/345 315/542/345 314/539/345
f 44/185/346 43/184/346 316/544/346 315/542/346
f 43/184/347 42/183/347 317/546/347 316/544/347
f 42/183/348 4/71/348 28/70/348 317/546/348
f 317/546/349 28/70/349 27/69/349 324/547/349
f 324/547/350 27/69/350 26/68/350 331/556/350
f 331/556/351 26/68/351 25/67/351 338/564/351
f 338/564/352 25/67/352 24/66/352 345/573/352
f 345/584/353 24/65/353 23/64/353 352/585/353
f 352/585/354 23/64/354 22/63/354 359/594/354
f 359/594/355 22/63/355 2/62/355 88/446/355
f 358/593/356 359/594/356 88/446/356 87/445/356
f 357/592/357 358/593/357 87/445/357 86/444/357
f 356/590/358 357/592/358 86/444/358 85/443/358
f 355/591/359 356/590/359 85/443/359 84/442/359
f 354/598/360 355/591/360 84/442/360 83/441/360
f 353/587/361 354/586/361 83/599/361 82/600/361
f 68/327/362 353/587/362 82/600/362 6/328/362
f 67/326/363 346/575/363 353/587/363 68/327/363
f 66/325/364 339/566/364 346/575/364 67/326/364
f 65/324/365 332/558/365 339/566/365 66/325/365
f 64/323/366 325/549/366 332/558/366 65/324/366
f 63/322/367 318/535/367 325/549/367 64/323/367
f 62/321/368 311/532/368 318/535/368 63/322/368
f 375/601/369 381/295/369 477/298/369 473/602/369
f 133/152/370 32/175/370 163/178/370 390/400/370
f 72/603/371 216/293/371 420/604/371 155/605/371
f 187/134/372 193/143/372 410/146/372 407/135/372
f 199/144/373 205/161/373 416/164/373 413/145/373
f 211/162/374 217/606/374 422/607/374 419/163/374
f 92/608/375 98/179/375 147/182/375 152/609/375
f 104/180/376 110/199/376 139/202/376 142/181/376
f 368/610/377 366/195/377 448/198/377 455/611/377
f 217/606/378 71/612/378 159/613/378 422/607/378
f 116/200/379 122/226/379 386/229/379 383/201/379
f 372/245/380 370/222/380 459/225/380 463/246/380
f 19/408/381 92/608/381 152/609/381 168/409/381
f 376/422/382 374/244/382 467/247/382 474/423/382
f 192/242/383 186/241/383 405/250/383 408/258/383
f 204/261/384 198/256/384 411/259/384 414/262/384
f 216/293/385 210/260/385 417/263/385 420/604/385
f 134/410/386 363/614/386 393/615/386 392/411/386
f 97/616/387 91/617/387 154/618/387 149/619/387
f 109/313/388 103/299/388 146/302/388 141/314/388
f 121/332/389 115/312/389 138/315/389 384/333/389
f 91/617/390 18/355/390 170/358/390 154/618/390
f 223/620/391 229/359/391 428/362/391 425/621/391
f 235/360/392 241/372/392 434/375/392 431/361/392
f 247/373/393 253/376/393 440/379/393 437/374/393
f 71/612/394 223/620/394 425/621/394 159/613/394
f 174/622/395 378/623/395 401/624/395 400/625/395
f 52/274/396 174/622/396 400/625/396 160/275/396
f 228/419/397 222/626/397 423/627/397 426/420/397
f 240/431/398 234/418/398 429/421/398 432/432/398
f 252/434/399 246/430/399 435/433/399 438/435/399
f 222/626/400 72/603/400 155/605/400 423/627/400
f 365/628/401 367/447/401 454/450/401 447/629/401
f 369/448/402 371/451/402 462/454/402 458/449/402
f 175/283/403 51/169/403 162/170/403 397/284/403
f 373/630/404 375/601/404 473/602/404 466/631/404
f 170/632/405 169/633/405 153/634/405 154/635/405
f 169/633/406 168/636/406 152/637/406 153/634/406
f 388/88/407 389/87/407 167/638/407 166/639/407
f 387/177/408 388/88/408 166/639/408 163/178/408
f 391/640/409 392/641/409 393/642/409 394/643/409
f 390/400/410 391/640/410 394/643/410 395/401/410
f 397/644/411 399/645/411 398/646/411 396/647/411
f 399/645/412 400/648/412 401/649/412 398/646/412
f 163/178/413 166/639/413 391/640/413 390/400/413
f 166/639/414 167/638/414 392/641/414 391/640/414
f 399/645/415 397/644/415 162/650/415 161/651/415
f 400/648/416 399/645/416 161/651/416 160/652/416
f 402/653/417 403/654/417 406/655/417 405/656/417
f 403/657/418 404/658/418 407/659/418 406/660/418
f 405/250/419 406/660/419 409/661/419 408/258/419
f 406/660/420 407/659/420 410/662/420 409/661/420
f 408/258/421 409/661/421 412/663/421 411/259/421
f 409/661/422 410/662/422 413/664/422 412/663/422
f 411/259/423 412/663/423 415/665/423 414/262/423
f 412/663/424 413/664/424 416/666/424 415/665/424
f 414/262/425 415/665/425 418/667/425 417/263/425
f 415/665/426 416/666/426 419/668/426 418/667/426
f 417/263/427 418/667/427 421/669/427 420/604/427
f 418/667/428 419/668/428 422/670/428 421/669/428
f 160/652/429 161/651/429 403/654/429 402/653/429
f 161/651/430 162/650/430 404/671/430 403/654/430
f 421/669/431 422/670/431 159/672/431 156/673/431
f 420/674/432 421/675/432 156/676/432 155/677/432
f 423/678/433 424/679/433 427/680/433 426/681/433
f 424/679/434 425/682/434 428/683/434 427/680/434
f 426/681/435 427/680/435 430/684/435 429/685/435
f 427/680/436 428/683/436 431/686/436 430/684/436
f 429/685/437 430/684/437 433/687/437 432/688/437
f 430/684/438 431/686/438 434/689/438 433/687/438
f 432/688/439 433/687/439 436/690/439 435/691/439
f 433/687/440 434/689/440 437/692/440 436/690/440
f 435/691/441 436/690/441 439/693/441 438/694/441
f 436/690/442 437/692/442 440/695/442 439/693/442
f 438/694/443 439/693/443 442/696/443 441/697/443
f 439/693/444 440/695/444 443/698/444 442/696/444
f 155/677/445 156/676/445 424/679/445 423/678/445
f 156/676/446 159/699/446 425/682/446 424/679/446
f 442/696/447 443/698/447 168/636/447 169/633/447
f 441/697/448 442/696/448 169/633/448 170/632/448
f 444/700/449 445/701/449 449/702/449 448/703/449
f 445/701/450 395/704/450 450/705/450 449/702/450
f 395/401/451 394/643/451 451/706/451 450/707/451
f 394/643/452 393/642/452 452/708/452 451/706/452
f 393/642/453 446/709/453 453/710/453 452/708/453
f 446/709/454 447/711/454 454/712/454 453/710/454
f 448/703/455 449/702/455 456/713/455 455/714/455
f 457/715/456 461/716/456 502/717/456 522/718/456 500/719/456
f 468/720/457 464/721/457 503/722/457 529/723/457 505/724/457
f 469/725/458 468/720/458 505/724/458 534/726/458 506/727/458
f 449/728/459 450/729/459 495/730/459 510/731/459 494/732/459
f 453/710/460 454/712/460 458/733/460 457/715/460
f 455/714/461 456/713/461 460/734/461 459/735/461
f 461/736/462 465/737/462 504/738/462 526/739/462 502/740/462
f 456/741/463 449/728/463 494/732/463 514/742/463 499/743/463
f 465/737/464 472/744/464 509/745/464 533/746/464 504/738/464
f 460/747/465 456/741/465 499/743/465 521/748/465 501/749/465
f 457/715/466 458/733/466 462/750/466 461/716/466
f 459/735/467 460/734/467 464/751/467 463/752/467
f 472/744/468 471/753/468 508/754/468 537/755/468 509/745/468
f 452/708/469 453/710/469 498/756/469 513/757/469 497/758/469
f 453/710/470 457/715/470 500/719/470 518/759/470 498/756/470
f 464/721/471 460/760/471 501/761/471 525/762/471 503/722/471
f 461/763/472 462/764/472 466/765/472 465/766/472
f 463/752/473 464/751/473 468/767/473 467/768/473
f 471/753/474 470/769/474 507/770/474 536/771/474 508/754/474
f 451/772/475 452/773/475 497/774/475 512/775/475 496/776/475
f 470/769/476 469/777/476 506/778/476 535/779/476 507/770/476
f 450/729/477 451/772/477 496/776/477 511/780/477 495/730/477
f 465/766/478 466/765/478 473/781/478 472/782/478
f 467/768/479 468/767/479 475/783/479 474/784/479
f 468/767/480 469/785/480 401/649/480 475/783/480
f 469/785/481 470/786/481 398/646/481 401/649/481
f 470/786/482 471/787/482 396/647/482 398/646/482
f 471/787/483 472/782/483 476/788/483 396/647/483
f 472/782/484 473/781/484 477/789/484 476/788/484
f 449/790/485 456/790/485 483/790/485 478/790/485
f 461/790/485 465/790/485 488/790/485 486/790/485
f 450/790/485 449/790/485 478/790/485 479/790/485
f 469/790/485 468/790/485 489/790/485 490/790/485
f 464/790/485 468/790/485 489/790/485 487/790/485
f 457/790/485 461/790/485 486/790/485 484/790/485
f 451/790/485 450/790/485 479/790/485 480/790/485
f 470/790/485 469/790/485 490/790/485 491/790/485
f 452/790/485 451/790/485 480/790/485 481/790/485
f 471/790/485 470/790/485 491/790/485 492/790/485
f 460/790/485 464/790/485 487/790/485 485/790/485
f 453/790/485 457/790/485 484/790/485 482/790/485
f 453/790/485 452/790/485 481/790/485 482/790/485
f 472/790/485 471/790/485 492/790/485 493/790/485
f 456/790/485 460/790/485 485/790/485 483/790/485
f 465/790/485 472/790/485 493/790/485 488/790/485
f 546/791/486 518/759/486 500/719/486 520/792/486
f 544/793/487 522/794/487 502/795/487 524/796/487
f 542/797/488 526/798/488 504/799/488 528/800/488
f 541/801/489 530/802/489 506/803/489 534/804/489
f 540/805/490 531/806/490 507/807/490 535/808/490
f 539/809/491 532/810/491 508/811/491 536/812/491
f 538/813/492 533/814/492 509/815/492 537/816/492
f 532/810/493 538/813/493 537/816/493 508/811/493
f 528/800/494 504/799/494 533/814/494 538/813/494
f 531/806/495 539/809/495 536/812/495 507/807/495
f 530/802/496 540/805/496 535/808/496 506/803/496
f 532/817/497 539/818/497 584/819/497 582/820/497
f 523/821/498 545/822/498 594/823/498 565/824/498
f 529/825/499 541/801/499 534/804/499 505/826/499
f 503/827/500 527/828/500 541/801/500 529/825/500
f 543/829/501 523/821/501 565/824/501 590/830/501
f 515/831/502 548/832/502 597/833/502 550/834/502
f 539/818/503 531/835/503 581/836/503 584/819/503
f 524/796/504 502/795/504 526/798/504 542/797/504
f 527/837/505 543/829/505 590/830/505 574/838/505
f 541/839/506 527/837/506 574/838/506 586/840/506
f 517/841/507 546/791/507 595/842/507 554/843/507
f 549/844/508 515/831/508 550/834/508 598/845/508
f 531/835/509 540/846/509 585/847/509 581/836/509
f 546/791/510 520/792/510 577/848/510 595/842/510
f 525/849/511 543/850/511 527/828/511 503/827/511
f 501/851/512 523/852/512 543/850/512 525/849/512
f 520/792/513 544/853/513 591/854/513 577/848/513
f 547/855/514 517/856/514 554/857/514 596/858/514
f 540/859/515 530/860/515 580/861/515 585/862/515
f 520/863/516 500/864/516 522/794/516 544/793/516
f 544/853/517 524/865/517 578/866/517 591/854/517
f 524/867/518 542/868/518 587/869/518 578/870/518
f 516/871/519 547/855/519 596/858/519 552/872/519
f 538/873/520 532/817/520 582/820/520 583/874/520
f 542/868/521 528/875/521 579/876/521 587/869/521
f 528/875/522 538/873/522 583/874/522 579/876/522
f 521/877/523 545/878/523 523/852/523 501/851/523
f 499/879/524 519/880/524 545/878/524 521/877/524
f 519/881/525 549/844/525 598/845/525 556/882/525
f 545/883/526 519/881/526 556/882/526 594/884/526
f 497/758/527 513/757/527 546/791/527 517/841/527
f 513/757/528 498/756/528 518/759/528 546/791/528
f 530/860/529 541/839/529 586/840/529 580/861/529
f 496/885/530 512/886/530 547/887/530 516/888/530
f 512/886/531 497/758/531 517/841/531 547/887/531
f 548/832/532 516/871/532 552/872/532 597/833/532
f 495/889/533 511/890/533 548/891/533 515/892/533
f 511/890/534 496/893/534 516/894/534 548/891/534
f 514/895/535 549/896/535 519/897/535 499/898/535
f 494/899/536 510/900/536 549/901/536 514/902/536
f 510/900/537 495/889/537 515/892/537 549/901/537
f 598/903/538 550/904/538 551/905/538 556/906/538
f 597/907/539 552/908/539 553/909/539 557/910/539
f 596/911/540 554/843/540 555/912/540 558/913/540
f 594/914/541 559/915/541 560/916/541 565/917/541
f 593/918/542 561/919/542 562/920/542 566/921/542
f 592/922/543 563/923/543 564/924/543 567/925/543
f 590/926/544 568/927/544 569/928/544 574/929/544
f 589/930/545 570/931/545 571/932/545 575/933/545
f 588/934/546 572/935/546 573/936/546 576/937/546
f 573/936/547 579/938/547 583/939/547 582/940/547
f 571/932/548 576/937/548 584/941/548 581/942/548
f 576/937/549 573/936/549 582/940/549 584/941/549
f 569/928/550 575/933/550 585/943/550 580/944/550
f 575/933/551 571/932/551 581/942/551 585/943/551
f 574/929/552 569/928/552 580/944/552 586/945/552
f 572/935/553 587/946/553 579/938/553 573/936/553
f 564/924/554 578/947/554 587/946/554 572/935/554
f 570/931/546 588/934/546 576/937/546 571/932/546
f 562/920/555 567/925/555 588/934/555 570/931/555
f 567/925/555 564/924/555 572/935/555 588/934/555
f 568/927/545 589/930/545 575/933/545 569/928/545
f 560/916/556 566/921/556 589/930/556 568/927/556
f 566/921/556 562/920/556 570/931/556 589/930/556
f 565/917/557 560/916/557 568/927/557 590/926/557
f 563/923/558 591/948/558 578/947/558 564/924/558
f 555/949/559 577/950/559 591/948/559 563/923/559
f 561/919/543 592/922/543 567/925/543 562/920/543
f 553/909/560 558/951/560 592/922/560 561/919/560
f 558/951/560 555/949/560 563/923/560 592/922/560
f 559/915/542 593/918/542 566/921/542 560/916/542
f 551/952/561 557/910/561 593/918/561 559/915/561
f 557/910/561 553/909/561 561/919/561 593/918/561
f 556/953/562 551/952/562 559/915/562 594/914/562
f 554/843/563 595/842/563 577/848/563 555/912/563
f 552/954/564 596/911/564 558/913/564 553/955/564
f 550/956/565 597/907/565 557/910/565 551/952/565
